<?xml version="1.0" standalone="no"?>
<!DOCTYPE svg PUBLIC "-//W3C//DTD SVG 20010904//EN"
 "http://www.w3.org/TR/2001/REC-SVG-20010904/DTD/svg10.dtd">
<svg version="1.0" xmlns="http://www.w3.org/2000/svg"
 width="1280.000000pt" height="853.000000pt" viewBox="0 0 1280.000000 853.000000"
 preserveAspectRatio="xMidYMid meet">

<g transform="translate(0.000000,853.000000) scale(0.100000,-0.100000)"
fill="#000000" stroke="none">
<path d="M0 4265 l0 -4265 6400 0 6400 0 0 4265 0 4265 -6400 0 -6400 0 0
-4265z m6050 3624 c-159 -23 -255 -125 -255 -269 0 -36 4 -76 9 -90 7 -21 6
-23 -5 -12 -10 9 -14 39 -14 95 0 75 3 87 33 140 19 31 48 68 65 81 48 37 126
65 177 64 l45 0 -55 -9z m145 -28 c28 -16 58 -37 65 -47 13 -16 13 -17 0 -9
-8 4 -25 17 -36 27 -12 10 -43 27 -70 38 -27 10 -40 19 -29 19 11 1 43 -12 70
-28z m120 -131 c9 -31 5 -26 -24 25 -20 35 -20 38 -3 20 11 -11 23 -31 27 -45z
m-193 -47 c49 -46 29 -131 -35 -152 -61 -21 -117 18 -117 81 0 67 28 96 94 97
19 1 40 -9 58 -26z m217 -62 c1 -51 -5 -34 -12 29 -4 36 -3 46 3 30 4 -14 8
-40 9 -59z m-19 -95 c-19 -58 -75 -122 -132 -150 -28 -14 -59 -26 -67 -25 -9
0 3 7 26 16 63 22 139 95 160 153 20 55 31 61 13 6z m-457 -92 c37 -43 106
-76 181 -84 58 -7 58 -7 15 -9 -91 -2 -200 59 -234 133 -9 17 -10 22 -3 12 7
-11 26 -34 41 -52z m1787 12 c0 -2 -7 -7 -16 -10 -8 -3 -12 -2 -9 4 6 10 25
14 25 6z m27 -162 c-3 -3 -12 -4 -19 -1 -8 3 -5 6 6 6 11 1 17 -2 13 -5z
m-1620 -211 c-2 -38 -3 -7 -3 67 0 74 1 105 3 68 2 -38 2 -98 0 -135z m2936
160 c108 -39 209 -155 222 -253 l5 -45 -15 53 c-20 71 -36 100 -84 148 -109
113 -287 135 -418 52 -26 -17 -41 -23 -33 -13 15 18 79 53 120 66 46 14 154
10 203 -8z m-378 -130 c-46 -60 -51 -65 -35 -33 14 28 63 88 68 84 2 -1 -13
-24 -33 -51z m353 -83 c124 -90 33 -281 -118 -249 -39 8 -96 64 -106 104 -31
126 117 223 224 145z m-409 -34 c-11 -43 -8 -124 6 -186 3 -14 -1 -10 -9 10
-18 43 -20 139 -4 191 16 54 22 42 7 -15z m668 -78 c-3 -8 -6 -5 -6 6 -1 11 2
17 5 13 3 -3 4 -12 1 -19z m-32 -136 c-14 -31 -45 -77 -68 -101 -46 -47 -147
-102 -187 -100 -19 1 -16 3 13 10 96 23 187 96 228 183 16 34 30 75 30 91 l2
30 4 -28 c3 -16 -6 -51 -22 -85z m-3148 -55 c-2 -23 -3 -1 -3 48 0 50 1 68 3
42 2 -26 2 -67 0 -90z m2557 -6 c-6 -6 -24 19 -24 34 1 6 7 1 15 -9 8 -11 12
-22 9 -25z m145 -107 c20 -9 54 -20 76 -24 l40 -9 -40 3 c-55 5 -126 40 -177
88 l-43 39 54 -41 c30 -23 70 -48 90 -56z m-2386 49 c-24 -2 -62 -2 -85 0 -24
2 -5 4 42 4 47 0 66 -2 43 -4z m-258 -18 c-66 -7 -138 -15 -160 -19 -39 -6
-39 -6 -7 5 51 15 140 27 217 27 60 0 53 -2 -50 -13z m491 -1 c58 -9 102 -19
100 -22 -3 -2 -56 3 -118 12 -62 8 -126 17 -143 19 -22 3 -18 4 13 6 24 0 90
-6 148 -15z m-2379 -30 c-3 -3 -12 -4 -19 -1 -8 3 -5 6 6 6 11 1 17 -2 13 -5z
m1603 -19 c-47 -14 -114 -34 -150 -45 -36 -12 -72 -24 -80 -26 -8 -3 1 4 20
14 19 11 80 31 135 46 55 15 105 29 110 31 6 2 19 4 30 4 11 0 -18 -11 -65
-24z m1016 -1 c31 -9 54 -17 52 -19 -2 -2 -42 7 -88 21 -47 13 -70 22 -52 19
18 -2 58 -12 88 -21z m149 -51 c36 -14 63 -28 61 -30 -2 -2 -37 10 -77 26 -41
17 -68 30 -62 30 7 1 42 -11 78 -26z m-3685 -19 c0 -2 -16 -4 -35 -4 -19 0
-35 4 -35 8 0 4 16 6 35 4 19 -2 35 -6 35 -8z m-133 -5 c-48 -11 -105 -40
-148 -76 l-34 -27 25 28 c39 43 122 85 170 84 18 0 14 -3 -13 -9z m243 -43
c45 -32 110 -108 110 -128 0 -6 -14 9 -32 33 -44 61 -74 88 -133 116 -34 17
-41 23 -20 18 16 -4 50 -21 75 -39z m2127 28 c-10 -11 -162 -83 -166 -79 -4 4
150 84 163 85 5 0 7 -3 3 -6z m1103 -19 c34 -19 25 -18 -45 5 -48 17 -52 19
-20 14 22 -3 51 -12 65 -19z m480 0 c25 -13 41 -24 35 -24 -5 0 -30 11 -55 24
-25 13 -40 24 -35 24 6 0 30 -11 55 -24z m-2913 -31 c-3 -3 -12 -4 -19 -1 -8
3 -5 6 6 6 11 1 17 -2 13 -5z m2569 -32 c-5 -4 -66 26 -66 33 0 3 16 -3 35
-12 19 -9 33 -18 31 -21z m512 -30 c139 -99 219 -169 301 -267 37 -44 76 -93
87 -110 10 -16 21 -32 24 -35 12 -10 80 -126 80 -135 0 -6 -6 -1 -12 10 -60
108 -176 261 -264 348 -66 65 -214 180 -286 222 -27 15 -48 29 -48 31 0 7 77
-34 118 -64z m-1305 51 c-7 -2 -19 -2 -25 0 -7 3 -2 5 12 5 14 0 19 -2 13 -5z
m120 0 c-13 -2 -33 -2 -45 0 -13 2 -3 4 22 4 25 0 35 -2 23 -4z m962 -2 c3 -5
1 -12 -5 -16 -5 -3 -10 1 -10 9 0 18 6 21 15 7z m-1705 -25 c0 -2 -20 -16 -45
-30 -25 -13 -43 -21 -40 -15 4 5 23 18 43 29 41 21 42 22 42 16z m1476 -27 c3
-6 -5 -3 -20 6 -14 10 -26 19 -26 22 0 7 39 -17 46 -28z m-3876 -29 c-21 -41
-35 -54 -23 -22 8 21 34 62 39 62 3 0 -5 -18 -16 -40z m2860 35 c0 -2 -10 -9
-22 -15 -22 -11 -22 -10 -4 4 21 17 26 19 26 11z m1330 -5 c0 -5 -5 -10 -11
-10 -5 0 -7 5 -4 10 3 6 8 10 11 10 2 0 4 -4 4 -10z m-712 -7 c-10 -2 -28 -2
-40 0 -13 2 -5 4 17 4 22 1 32 -1 23 -4z m-3253 -33 c-3 -5 -12 -10 -18 -10
-7 0 -6 4 3 10 19 12 23 12 15 0z m2033 -38 c-23 -22 -44 -39 -46 -37 -2 2 16
21 40 43 23 22 44 39 46 37 2 -2 -16 -21 -40 -43z m542 39 c0 -5 -7 -12 -16
-15 -14 -5 -15 -4 -4 9 14 17 20 19 20 6z m747 -23 c-3 -8 -6 -5 -6 6 -1 11 2
17 5 13 3 -3 4 -12 1 -19z m2753 1 c-7 -11 -14 -18 -17 -15 -3 3 0 12 7 21 18
21 23 19 10 -6z m-2886 -28 c-2 -3 -12 3 -22 13 -16 17 -16 18 5 5 12 -7 20
-15 17 -18z m-3441 -11 c-3 -12 -8 -19 -11 -16 -5 6 5 36 12 36 2 0 2 -9 -1
-20z m615 -80 c0 -25 -3 -55 -6 -68 -4 -13 -7 18 -7 68 0 50 3 81 7 68 3 -13
6 -43 6 -68z m2900 83 c-10 -2 -28 -2 -40 0 -13 2 -5 4 17 4 22 1 32 -1 23 -4z
m-275 -20 c-7 -2 -21 -2 -30 0 -10 3 -4 5 12 5 17 0 24 -2 18 -5z m-1053 -48
c-44 -45 -50 -50 -50 -40 0 7 83 85 90 85 2 0 -16 -20 -40 -45z m2296 -57 c17
-18 48 -55 68 -83 l38 -50 -38 45 c-21 25 -70 76 -108 115 -39 38 -53 55 -31
38 22 -17 54 -46 71 -65z m-4499 30 c-2 -13 -4 -5 -4 17 -1 22 1 32 4 23 2
-10 2 -28 0 -40z m6420 6 c-3 -3 -12 -4 -19 -1 -8 3 -5 6 6 6 11 1 17 -2 13
-5z m-3167 -14 c-8 -5 -28 -9 -45 -9 -30 2 -30 2 5 9 51 11 57 11 40 0z m-213
-42 c-3 -7 -5 -2 -5 12 0 14 2 19 5 13 2 -7 2 -19 0 -25z m928 3 c39 -18 85
-55 85 -68 0 -4 -12 5 -27 20 -31 29 -91 57 -124 57 -43 0 -97 -23 -107 -45
-17 -36 2 -93 44 -136 70 -72 167 -88 221 -37 22 20 24 29 20 73 -4 32 -2 43
3 30 23 -53 7 -106 -40 -130 -126 -65 -333 109 -252 212 35 45 110 55 177 24z
m-1850 -11 c-3 -5 -12 -10 -18 -10 -7 0 -6 4 3 10 19 12 23 12 15 0z m-2081
-57 c9 -18 14 -33 12 -33 -6 0 -36 55 -36 66 0 11 5 3 24 -33z m2020 -5 c-22
-24 -55 -64 -73 -90 -19 -27 -36 -46 -39 -43 -8 7 132 175 146 175 3 0 -13
-19 -34 -42z m1579 35 c-7 -2 -19 -2 -25 0 -7 3 -2 5 12 5 14 0 19 -2 13 -5z
m-1113 -23 c0 -5 -5 -10 -11 -10 -5 0 -7 5 -4 10 3 6 8 10 11 10 2 0 4 -4 4
-10z m191 -18 c-19 -3 -21 -6 -10 -14 12 -8 12 -9 0 -6 -8 3 -16 9 -18 15 -5
13 27 23 42 14 6 -3 -1 -8 -14 -9z m-2111 -1 c0 -5 -9 -19 -21 -32 l-20 -24
17 33 c19 33 24 38 24 23z m-525 -51 c10 -11 16 -20 13 -20 -3 0 -13 9 -23 20
-10 11 -16 20 -13 20 3 0 13 -9 23 -20z m455 -41 c-27 -21 -71 -47 -55 -32 19
18 68 53 74 53 3 0 -5 -9 -19 -21z m-409 -6 c13 -16 12 -17 -3 -4 -17 13 -22
21 -14 21 2 0 10 -8 17 -17z m2989 13 c0 -3 -4 -8 -10 -11 -5 -3 -10 -1 -10 4
0 6 5 11 10 11 6 0 10 -2 10 -4z m-2930 -52 c0 -2 -9 0 -20 6 -11 6 -20 13
-20 16 0 2 9 0 20 -6 11 -6 20 -13 20 -16z m4100 16 c0 -5 -4 -10 -9 -10 -6 0
-13 5 -16 10 -3 6 1 10 9 10 9 0 16 -4 16 -10z m-2352 -40 c-7 -10 -14 -17
-17 -15 -4 4 18 35 25 35 2 0 -1 -9 -8 -20z m1706 -6 c3 -8 2 -12 -4 -9 -6 3
-10 10 -10 16 0 14 7 11 14 -7z m-3281 -1 c-18 -2 -48 -2 -65 0 -18 2 -4 4 32
4 36 0 50 -2 33 -4z m1525 -78 c-12 -24 -23 -43 -26 -41 -4 5 36 86 43 86 3 0
-5 -20 -17 -45z m3013 -41 c12 -25 19 -47 17 -50 -2 -2 -14 19 -25 46 -12 28
-19 50 -17 50 3 0 14 -21 25 -46z m-341 6 c8 -5 11 -12 7 -16 -4 -4 -15 0 -24
9 -18 18 -8 23 17 7z m-390 -20 c0 -5 -7 -10 -15 -10 -8 0 -15 5 -15 10 0 6 7
10 15 10 8 0 15 -4 15 -10z m-780 -10 c0 -5 -5 -10 -11 -10 -5 0 -7 5 -4 10 3
6 8 10 11 10 2 0 4 -4 4 -10z m-1549 -23 c-10 -9 -11 -8 -5 6 3 10 9 15 12 12
3 -3 0 -11 -7 -18z m3118 -107 c0 -17 -23 33 -33 71 -3 13 3 6 14 -16 11 -22
19 -47 19 -55z m-3160 -9 c-12 -34 -23 -60 -25 -58 -2 2 6 32 17 66 12 34 23
60 25 58 2 -2 -6 -32 -17 -66z m1051 59 c0 -5 -7 -10 -16 -10 -8 0 -12 5 -9
10 3 6 10 10 16 10 5 0 9 -4 9 -10z m1010 -10 c0 -5 -7 -7 -15 -4 -8 4 -15 8
-15 10 0 2 7 4 15 4 8 0 15 -4 15 -10z m487 -15 c0 -8 -4 -12 -9 -9 -5 3 -6
10 -3 15 9 13 12 11 12 -6z m-766 -44 c7 11 9 10 9 -4 0 -20 -22 -19 -26 1 -2
9 -1 9 3 1 4 -8 8 -7 14 2z m816 3 c-3 -3 -12 -4 -19 -1 -8 3 -5 6 6 6 11 1
17 -2 13 -5z m602 -134 c-1 -19 -24 53 -32 100 -4 19 2 8 13 -25 11 -33 19
-67 19 -75z m-822 98 c-3 -8 -6 -5 -6 6 -1 11 2 17 5 13 3 -3 4 -12 1 -19z
m-1327 -44 l25 -15 -25 8 c-32 10 -167 10 -200 1 -19 -6 -18 -4 5 7 41 19 162
19 195 -1z m-230 -18 c0 -2 -16 -13 -35 -25 -19 -11 -35 -18 -35 -16 0 5 61
45 68 45 1 0 2 -2 2 -4z m345 -58 c23 -25 24 -28 5 -12 -32 27 -50 41 -75 60
-18 13 -17 14 10 0 17 -8 44 -29 60 -48z m335 37 c-7 -9 -15 -13 -19 -10 -3 3
1 10 9 15 21 14 24 12 10 -5z m-1556 -64 c-4 -17 -9 -30 -11 -27 -3 2 -2 19 2
36 9 41 17 33 9 -9z m787 16 c-10 -9 -11 -8 -5 6 3 10 9 15 12 12 3 -3 0 -11
-7 -18z m2476 -34 c-3 -10 -5 -2 -5 17 0 19 2 27 5 18 2 -10 2 -26 0 -35z
m531 40 c-10 -2 -26 -2 -35 0 -10 3 -2 5 17 5 19 0 27 -2 18 -5z m-640 -28
c-3 -3 -9 2 -12 12 -6 14 -5 15 5 6 7 -7 10 -15 7 -18z m425 18 c-13 -2 -35
-2 -50 0 -16 2 -5 4 22 4 28 0 40 -2 28 -4z m-1813 -23 c0 -5 -4 -10 -10 -10
-5 0 -10 5 -10 10 0 6 5 10 10 10 6 0 10 -4 10 -10z m-1010 -8 c0 -5 -7 -17
-15 -28 -14 -18 -14 -17 -4 9 12 27 19 34 19 19z m697 -14 c-3 -8 -6 -5 -6 6
-1 11 2 17 5 13 3 -3 4 -12 1 -19z m3290 -45 c-3 -10 -5 -4 -5 12 0 17 2 24 5
18 2 -7 2 -21 0 -30z m-4760 -5 c-3 -7 -5 -2 -5 12 0 14 2 19 5 13 2 -7 2 -19
0 -25z m982 8 c-2 -2 -15 -9 -29 -15 -24 -11 -24 -11 -6 3 16 13 49 24 35 12z
m1851 0 c0 -3 -4 -8 -10 -11 -5 -3 -10 -1 -10 4 0 6 5 11 10 11 6 0 10 -2 10
-4z m44 -5 c4 -5 -3 -7 -14 -4 -23 6 -26 13 -6 13 8 0 17 -4 20 -9z m413 -103
c-2 -24 -4 -7 -4 37 0 44 2 63 4 43 2 -21 2 -57 0 -80z m-3268 62 c-12 -54
-16 -206 -6 -253 5 -25 5 -37 -1 -33 -30 18 -17 326 13 326 1 0 -1 -18 -6 -40z
m708 8 c-3 -8 -6 -5 -6 6 -1 11 2 17 5 13 3 -3 4 -12 1 -19z m-10 -120 c-2
-18 -4 -6 -4 27 0 33 2 48 4 33 2 -15 2 -42 0 -60z m2308 12 c3 -5 1 -10 -4
-10 -6 0 -11 5 -11 10 0 6 2 10 4 10 3 0 8 -4 11 -10z m182 -32 c-3 -8 -6 -5
-6 6 -1 11 2 17 5 13 3 -3 4 -12 1 -19z m-354 5 c-7 -2 -19 -2 -25 0 -7 3 -2
5 12 5 14 0 19 -2 13 -5z m-385 -30 c-10 -2 -28 -2 -40 0 -13 2 -5 4 17 4 22
1 32 -1 23 -4z m809 -40 c-3 -10 -5 -4 -5 12 0 17 2 24 5 18 2 -7 2 -21 0 -30z
m-2239 -20 c-10 -2 -26 -2 -35 0 -10 3 -2 5 17 5 19 0 27 -2 18 -5z m-233 -82
c17 -19 23 -31 15 -26 -17 10 -37 35 -63 79 -18 30 -18 30 0 6 10 -13 32 -40
48 -59z m2462 57 c-3 -8 -6 -5 -6 6 -1 11 2 17 5 13 3 -3 4 -12 1 -19z m-17
-55 c-11 -17 -11 -17 -6 0 3 10 6 24 7 30 0 9 2 9 5 0 3 -7 0 -20 -6 -30z
m907 -59 c26 -9 52 -20 57 -25 6 -5 -16 0 -47 11 -72 25 -138 25 -212 0 -32
-11 -55 -17 -51 -13 17 18 104 42 153 42 29 1 74 -6 100 -15z m-936 -17 c-10
-9 -11 -8 -5 6 3 10 9 15 12 12 3 -3 0 -11 -7 -18z m664 -27 c-3 -5 -16 -15
-28 -21 -21 -10 -21 -9 2 10 25 23 36 27 26 11z m420 -52 c80 -94 106 -223 66
-330 -12 -31 -28 -61 -35 -67 -7 -6 -1 13 13 42 21 43 26 66 26 132 0 100 -33
178 -103 244 -26 24 -37 39 -25 33 12 -7 38 -31 58 -54z m-1440 2 c3 -5 1 -10
-4 -10 -6 0 -11 5 -11 10 0 6 2 10 4 10 3 0 8 -4 11 -10z m955 -9 c-5 -11 -15
-23 -22 -27 -7 -5 -8 -2 -3 7 21 37 44 55 25 20z m-2207 2 c-7 -2 -19 -2 -25
0 -7 3 -2 5 12 5 14 0 19 -2 13 -5z m2156 -95 c-26 -75 -24 -156 5 -243 4 -11
-1 -6 -11 10 -24 41 -25 194 -1 248 24 54 28 46 7 -15z m314 35 c-7 -2 -19 -2
-25 0 -7 3 -2 5 12 5 14 0 19 -2 13 -5z m-3263 -17 c0 -3 -4 -8 -10 -11 -5 -3
-10 -1 -10 4 0 6 5 11 10 11 6 0 10 -2 10 -4z m3317 -22 c35 -22 54 -59 56
-106 4 -103 -97 -162 -192 -114 -45 24 -61 54 -61 112 0 45 4 57 31 83 49 49
112 59 166 25z m-1181 -112 c-17 -16 -18 -16 -5 5 7 12 15 20 18 17 3 -2 -3
-12 -13 -22z m1254 -49 c-11 -17 -11 -17 -6 0 3 10 7 31 7 45 l2 27 4 -27 c2
-15 -1 -35 -7 -45z m-310 -223 c25 -17 41 -30 37 -30 -23 0 -122 82 -139 115
-5 11 5 3 24 -18 18 -21 53 -51 78 -67z m420 67 c0 -2 -15 -16 -32 -33 l-33
-29 29 33 c28 30 36 37 36 29z m-2202 -34 c-43 -2 -113 -2 -155 0 -43 1 -8 3
77 3 85 0 120 -2 78 -3z m-245 -10 c-7 -2 -19 -2 -25 0 -7 3 -2 5 12 5 14 0
19 -2 13 -5z m390 0 c-7 -2 -21 -2 -30 0 -10 3 -4 5 12 5 17 0 24 -2 18 -5z
m1967 -33 c-24 -19 -40 -25 -40 -15 0 5 51 34 60 34 3 0 -6 -8 -20 -19z
m-3027 3 c-7 -2 -19 -2 -25 0 -7 3 -2 5 12 5 14 0 19 -2 13 -5z m2890 -50 c-7
-2 -21 -2 -30 0 -10 3 -4 5 12 5 17 0 24 -2 18 -5z m-3690 -160 c-7 -2 -19 -2
-25 0 -7 3 -2 5 12 5 14 0 19 -2 13 -5z m1310 -208 c-3 -9 -8 -14 -10 -11 -3
3 -2 9 2 15 9 16 15 13 8 -4z m-175 -92 c-10 -2 -28 -2 -40 0 -13 2 -5 4 17 4
22 1 32 -1 23 -4z m1959 -19 c-3 -3 -12 -4 -19 -1 -8 3 -5 6 6 6 11 1 17 -2
13 -5z m-72 -115 c8 -12 6 -12 -8 0 -10 8 -17 26 -16 45 l1 31 7 -31 c4 -17
12 -37 16 -45z m580 -19 c-3 -5 -18 -9 -33 -9 l-27 1 30 8 c17 4 31 8 33 9 2
0 0 -3 -3 -9z m-2098 -287 c-1 -43 -3 -10 -3 72 0 83 2 118 3 78 2 -40 2 -107
0 -150z m571 32 c104 -21 225 -82 296 -150 31 -30 56 -58 56 -64 0 -5 -26 16
-57 48 -63 61 -174 125 -257 147 -28 7 -91 16 -141 18 -66 4 -79 2 -50 -4 31
-7 22 -8 -40 -4 -53 2 -73 1 -60 -5 13 -7 15 -10 5 -10 -8 0 -22 3 -29 8 -12
8 -10 11 10 15 86 19 173 19 267 1z m-318 -42 c-18 -7 -36 -11 -39 -8 -3 3 5
8 17 12 12 3 20 9 17 13 -3 5 4 6 16 3 19 -5 18 -7 -11 -20z m-475 -241 c-4
-12 -42 -14 -228 -11 l-222 4 -3 -102 -3 -103 201 0 200 0 0 -115 0 -115 -185
0 c-121 0 -185 4 -185 10 0 6 10 10 23 9 12 -1 93 -1 180 -1 l158 2 -3 95 -3
95 -197 0 -198 0 0 120 0 120 230 0 230 0 0 110 0 110 -365 0 -365 0 0 -457
c0 -268 -4 -452 -9 -443 -7 11 -9 906 -2 917 0 2 169 4 374 5 l372 3 3 -119
c1 -66 0 -126 -3 -134z m-3976 216 c16 -42 69 -196 111 -323 18 -55 39 -115
47 -133 8 -18 21 -56 30 -85 8 -29 24 -69 34 -89 10 -21 19 -45 19 -55 0 -10
12 -43 26 -73 14 -30 27 -64 29 -75 2 -11 20 -66 40 -123 20 -57 35 -106 32
-108 -2 -2 -12 17 -21 43 -10 27 -28 77 -40 113 -52 145 -129 360 -157 432
-16 43 -29 84 -29 93 0 8 -5 23 -10 33 -6 9 -37 94 -69 187 l-58 170 -165 3
c-151 2 -166 1 -171 -15 -9 -31 -396 -1053 -403 -1064 -4 -7 42 -9 135 -7 78
2 141 0 141 -4 0 -5 -65 -8 -145 -8 -97 0 -145 4 -145 11 0 6 11 38 24 72 14
34 106 281 206 550 l183 487 171 0 172 0 13 -32z m809 -529 l-3 -560 -137 -3
-138 -3 0 563 0 564 140 0 140 0 -2 -561z m532 551 c0 -6 16 -37 37 -68 49
-78 75 -125 65 -118 -5 3 -33 43 -63 90 l-54 86 -152 0 c-139 0 -151 -1 -148
-17 2 -10 4 -255 4 -545 l1 -528 125 0 125 0 3 333 2 332 3 -337 c1 -213 -2
-338 -8 -340 -5 -1 -65 -2 -133 0 l-124 3 -6 127 c-4 70 -7 322 -7 560 l0 432
165 0 c108 0 165 -4 165 -10z m700 -557 l0 -566 -112 6 c-62 4 -133 7 -158 7
l-45 0 -85 133 c-46 72 -130 202 -185 287 -136 207 -157 241 -153 245 5 5 142
-203 294 -442 21 -34 61 -96 87 -138 l48 -75 150 0 149 0 0 545 0 545 -130 0
-130 0 -3 -332 -2 -333 -3 343 -2 342 140 0 140 0 0 -567z m1070 437 l0 -131
-162 2 -163 1 -5 -434 -5 -433 -142 0 -143 0 0 435 0 435 -165 -3 -165 -3 0
131 0 130 475 0 475 0 0 -130z m1265 120 c-3 -5 -12 -10 -18 -10 -7 0 -6 4 3
10 19 12 23 12 15 0z m1755 -120 l0 -130 -237 0 c-137 0 -244 4 -253 10 -10 6
69 10 233 10 l247 0 0 110 0 110 -380 0 -380 0 0 -545 0 -545 378 0 379 0 -3
103 -2 102 -249 5 c-136 3 -241 9 -232 13 9 4 123 7 255 5 l239 -3 3 -117 3
-118 -363 -2 c-200 0 -375 -2 -390 -2 l-28 -2 -1 366 c0 201 -2 439 -5 529 -3
91 -3 180 1 198 l6 33 389 0 390 0 0 -130z m458 97 c28 -38 108 -153 154 -220
18 -26 44 -63 58 -81 14 -19 32 -44 40 -56 8 -12 29 -41 45 -64 33 -44 101
-142 124 -179 l15 -22 -21 20 c-11 11 -42 52 -69 90 -26 39 -65 95 -87 125
-21 30 -67 96 -102 145 -35 50 -90 127 -121 173 l-56 82 -139 0 -139 0 0 -545
0 -545 125 0 125 0 0 318 c0 174 4 323 9 330 6 10 16 2 39 -30 17 -24 35 -47
39 -53 23 -28 372 -525 382 -544 11 -20 19 -21 151 -21 l140 0 0 545 0 545
-125 0 -125 0 -2 -337 -3 -338 -5 348 -5 347 138 0 137 0 0 -559 0 -560 -112
-3 c-62 -2 -128 -2 -145 0 -34 3 -20 -14 -291 372 -26 36 -72 100 -104 143
-32 43 -65 91 -75 108 -9 16 -21 29 -25 29 -4 0 -8 -146 -8 -325 l0 -325 -135
0 -135 0 0 560 0 560 143 0 142 -1 23 -32z m1822 -66 c0 -80 -3 -101 -17 -112
-15 -13 -15 -12 -5 8 7 12 12 58 12 102 l0 81 -450 0 -450 0 0 -110 0 -110
244 0 c134 0 251 -3 260 -6 32 -12 41 2 -284 -420 -14 -18 -69 -90 -122 -161
l-97 -128 -1 -77 0 -78 455 0 456 0 -3 103 -3 102 -283 3 -283 2 53 68 c29 37
56 72 60 77 8 10 42 53 157 200 35 44 71 90 81 102 10 12 26 33 35 47 10 14
21 26 26 26 9 0 -50 -80 -140 -191 -26 -30 -57 -70 -71 -89 -14 -18 -58 -74
-97 -124 -40 -50 -73 -93 -73 -96 0 -3 116 -5 258 -4 141 0 265 -2 275 -4 16
-4 17 -16 15 -116 l-3 -111 -465 -3 -465 -2 0 92 c0 70 4 96 15 106 13 12 13
13 0 6 -13 -7 -13 -5 -2 9 8 9 19 15 25 14 7 -1 11 6 11 15 -1 11 4 14 14 11
10 -4 13 -2 8 5 -4 7 6 25 24 43 17 17 29 34 26 37 -3 2 6 13 20 24 13 11 23
27 22 36 -2 10 3 16 10 14 6 -1 12 3 12 9 0 5 5 7 12 3 8 -5 9 -2 5 9 -3 10
-2 17 4 17 6 0 7 5 3 12 -5 8 -2 9 10 5 12 -5 16 -2 14 11 -2 10 2 16 11 14 9
-2 11 3 7 13 -3 9 -2 14 3 11 12 -8 44 31 36 44 -3 6 -2 9 3 8 6 -2 10 -1 9 2
-1 13 25 50 32 45 8 -4 22 16 25 35 2 13 44 59 49 54 3 -3 8 4 12 15 3 12 10
21 14 21 4 0 17 17 29 39 12 21 29 44 37 51 8 7 15 19 15 26 0 12 -42 14 -252
12 l-253 -3 -5 128 -5 127 463 0 462 0 0 -99z m-4058 49 c-18 -11 -35 -20 -38
-20 -4 0 -25 -14 -48 -32 -29 -23 -35 -25 -21 -9 11 13 43 36 70 52 56 32 88
40 37 9z m-132 -93 c0 -2 -10 -12 -22 -23 l-23 -19 19 23 c18 21 26 27 26 19z
m-2720 -130 c0 -13 -29 12 -42 37 -10 19 -8 18 16 -3 14 -14 26 -29 26 -34z
m3038 29 c-16 -8 -34 -18 -40 -21 -7 -4 -2 3 11 14 13 12 31 21 40 21 10 0 5
-6 -11 -14z m3814 -23 c-17 -21 -45 -54 -62 -73 l-32 -35 33 45 c34 47 80 100
87 100 2 0 -10 -17 -26 -37z m-3457 -43 c14 -22 -12 -7 -55 32 l-45 40 47 -31
c26 -17 50 -36 53 -41z m945 -150 l210 0 0 -115 0 -116 -207 1 -208 2 -6 -94
-6 -93 1 100 1 100 208 0 207 -1 0 101 0 100 -202 -3 c-157 -3 -203 0 -209 10
-5 7 -8 56 -7 108 l2 95 3 -97 4 -98 209 0z m-4333 155 c0 -8 -4 -12 -9 -9 -5
3 -6 10 -3 15 9 13 12 11 12 -6z m2953 11 c0 -2 -8 -10 -17 -17 -16 -13 -17
-12 -4 4 13 16 21 21 21 13z m-4610 -78 c12 -35 45 -123 72 -197 27 -73 46
-136 43 -140 -9 -8 -251 -14 -281 -7 -14 4 -24 14 -24 24 0 11 3 13 8 6 8 -13
282 -14 282 -2 0 7 -19 61 -103 289 l-31 86 -23 -46 c-13 -25 -20 -35 -17 -21
10 39 34 81 43 76 4 -3 18 -34 31 -68z m1698 24 c2 -7 -2 -10 -12 -6 -9 3 -16
11 -16 16 0 13 23 5 28 -10z m2520 -77 c-14 -66 -18 -115 -14 -185 3 -67 2
-83 -4 -55 -17 80 -10 183 21 298 19 70 17 35 -3 -58z m-2493 17 c2 -28 1 -27
-18 2 -15 22 -15 24 0 22 9 -2 17 -12 18 -24z m-1823 -64 c-11 -24 -27 -65
-36 -93 -17 -52 -43 -99 -33 -60 13 50 81 218 84 208 2 -6 -5 -31 -15 -55z
m1878 -25 c0 -3 -9 2 -20 12 -11 10 -20 22 -20 27 0 4 9 -1 20 -12 11 -11 20
-23 20 -27z m3371 28 l177 -1 3 -44 c2 -24 1 -42 -3 -39 -5 2 -8 20 -8 39 l0
34 -247 2 c-137 1 -223 4 -193 7 30 3 64 5 75 4 11 -1 99 -2 196 -2z m-644
-33 c-3 -7 -5 -2 -5 12 0 14 2 19 5 13 2 -7 2 -19 0 -25z m310 -15 c-3 -10 -5
-2 -5 17 0 19 2 27 5 18 2 -10 2 -26 0 -35z m-2967 -86 c0 -11 -22 11 -43 44
-9 14 -14 29 -10 33 7 6 53 -60 53 -77z m2657 -44 c-3 -10 -5 -4 -5 12 0 17 2
24 5 18 2 -7 2 -21 0 -30z m-2607 -24 c0 -6 -4 -7 -10 -4 -5 3 -10 11 -10 16
0 6 5 7 10 4 6 -3 10 -11 10 -16z m1762 -109 l-4 -100 213 -1 c118 -1 218 -1
223 0 4 1 17 -1 27 -4 55 -18 -5 -23 -226 -22 l-245 2 0 113 c0 61 4 112 8
112 4 0 6 -45 4 -100z m1395 38 c-3 -7 -5 -2 -5 12 0 14 2 19 5 13 2 -7 2 -19
0 -25z m-507 -13 c14 -19 14 -19 -2 -6 -10 7 -18 18 -18 24 0 6 1 8 3 6 1 -2
9 -13 17 -24z m507 -77 c-3 -7 -5 -2 -5 12 0 14 2 19 5 13 2 -7 2 -19 0 -25z
m-300 -64 c-3 -3 -12 -4 -19 -1 -8 3 -5 6 6 6 11 1 17 -2 13 -5z m173 -4 c-8
-5 -31 -9 -50 -8 l-35 1 40 7 c59 11 61 11 45 0z m-4719 -115 l34 -96 147 3
c81 2 144 -1 139 -5 -4 -4 -72 -6 -150 -5 l-143 3 -36 92 -35 93 -211 3 -211
2 216 3 215 2 35 -95z m3925 -103 c-9 -8 -756 -8 -756 1 0 4 169 7 375 7 l375
0 2 98 2 97 3 -99 c2 -54 1 -101 -1 -104z m-4420 121 c-22 -56 -53 -117 -43
-83 12 39 60 150 63 147 2 -2 -7 -31 -20 -64z m5127 -160 c-18 -2 -48 -2 -65
0 -18 2 -4 4 32 4 36 0 50 -2 33 -4z m-1035 -241 c44 -20 100 -87 113 -136 6
-23 9 -75 7 -117 -4 -63 -10 -85 -34 -122 -81 -129 -286 -137 -373 -17 -82
114 -56 302 52 377 61 42 162 49 235 15z m1074 2 c31 -16 68 -68 68 -96 0 -15
-9 -18 -55 -18 -39 0 -56 4 -63 16 -19 33 -114 35 -135 3 -23 -36 1 -52 145
-93 81 -24 118 -68 118 -141 0 -49 -4 -58 -37 -93 -92 -96 -293 -71 -347 43
-10 20 -16 39 -13 41 2 3 27 7 55 11 48 5 52 4 61 -19 12 -31 29 -38 91 -38
51 0 80 18 80 48 0 32 -17 43 -86 61 -132 34 -184 78 -184 156 0 97 82 150
214 139 33 -3 73 -12 88 -20z m-4800 -221 c3 -131 5 -239 3 -241 -5 -6 -77
-10 -95 -5 -18 5 -19 18 -20 237 0 128 3 235 6 239 4 4 28 7 54 7 l47 0 5
-237z m338 101 c52 -74 100 -143 107 -152 10 -14 12 13 13 134 l0 151 55 2 55
2 0 -244 0 -243 -47 -2 c-27 -1 -53 1 -58 5 -13 10 -163 215 -195 268 l-25 40
-3 -150 c-2 -104 -6 -152 -15 -157 -7 -4 -31 -8 -54 -8 l-43 0 0 245 0 245 58
0 57 0 95 -136z m570 -14 c58 -82 107 -150 110 -150 3 0 5 66 5 147 l0 148 53
3 52 3 0 -244 0 -243 -55 -2 -54 -1 -88 124 c-48 68 -98 139 -110 157 l-23 33
0 -158 0 -157 -39 0 c-74 0 -70 -14 -71 244 0 128 3 235 6 239 4 4 30 7 59 7
l51 0 104 -150z m673 120 c121 -76 153 -259 67 -376 -66 -91 -210 -118 -306
-58 -127 78 -152 271 -50 390 49 57 87 74 172 74 61 0 76 -4 117 -30z m336
-152 c46 -145 57 -173 63 -150 12 48 35 124 70 227 l35 100 57 3 57 3 -7 -28
c-4 -15 -15 -48 -24 -73 -10 -25 -45 -121 -78 -215 l-59 -170 -53 -3 c-29 -2
-58 2 -64 8 -15 15 -175 463 -169 473 3 4 30 7 61 5 l56 -3 55 -177z m592 161
c6 -12 22 -51 34 -88 13 -36 47 -127 75 -201 74 -193 74 -179 4 -177 l-58 2
-17 45 -17 45 -92 0 -92 0 -18 -45 -18 -45 -53 0 c-66 0 -66 -1 -11 145 22 58
60 158 83 223 l44 117 62 0 c53 0 64 -3 74 -21z m569 -29 l0 -50 -70 0 -70 0
0 -196 0 -195 -52 3 -53 3 -3 193 -2 192 -70 0 -70 0 0 43 c0 24 3 47 7 50 3
4 91 7 195 7 l188 0 0 -50z m208 -197 l2 -243 -55 0 -55 0 0 246 0 245 53 -3
52 -3 3 -242z m857 140 c42 -60 88 -127 103 -150 15 -23 29 -42 32 -43 3 0 4
67 2 150 l-3 150 56 0 55 0 -2 -242 -3 -243 -51 -3 -50 -3 -56 78 c-30 43 -78
113 -107 156 -28 42 -53 77 -54 77 -1 0 -2 -69 -2 -152 l0 -153 -52 -1 -53 -1
0 243 0 244 55 0 54 0 76 -107z m1340 82 c78 -39 105 -124 69 -215 -22 -54
-68 -77 -173 -86 l-80 -7 -3 -76 -3 -76 -52 -3 -53 -3 0 239 c0 131 3 242 8
246 4 4 61 6 127 4 95 -3 128 -7 160 -23z m277 -45 c72 -245 98 -315 98 -269
0 7 15 61 34 119 18 58 41 131 50 163 l17 57 54 0 c41 0 55 -4 55 -14 0 -16
-144 -426 -160 -457 -9 -15 -22 -19 -69 -19 -55 0 -59 2 -69 28 -24 64 -142
438 -142 450 0 9 15 12 56 10 l56 -3 20 -65z m779 66 c2 -3 3 -25 1 -50 l-4
-46 -69 0 -69 0 0 -195 0 -195 -52 3 -53 2 -3 193 -2 192 -70 0 -70 0 0 50 0
50 193 0 c107 0 196 -2 198 -4z m409 -191 l0 -195 116 0 115 0 -3 -46 -3 -47
-150 1 c-82 1 -158 1 -167 2 -17 0 -18 18 -18 240 l0 240 55 0 55 0 0 -195z
m656 143 l1 -48 -68 0 -69 0 0 -189 c0 -211 4 -200 -76 -197 l-39 1 0 193 0
192 -72 0 -73 0 0 43 c0 24 3 47 7 51 4 3 93 5 197 4 l191 -3 1 -47z m387 23
c67 -33 103 -80 117 -158 24 -127 -21 -232 -118 -275 -44 -20 -206 -32 -264
-21 l-28 6 0 232 c0 127 3 235 8 239 4 5 59 6 122 4 94 -3 124 -8 163 -27z"/>
<path d="M6015 7687 c-10 -8 -15 -19 -11 -26 5 -7 2 -10 -6 -9 -18 4 -22 -38
-8 -73 20 -47 87 -52 130 -9 61 61 -35 167 -105 117z m86 -24 c13 -16 12 -17
-3 -5 -9 8 -23 10 -29 6 -8 -4 -9 -3 -5 4 10 17 21 15 37 -5z m-5 -60 c-2 -21
-8 -37 -12 -35 -11 2 -11 8 0 45 11 38 16 34 12 -10z m15 -6 c-10 -9 -11 -8
-5 6 3 10 9 15 12 12 3 -3 0 -11 -7 -18z"/>
<path d="M8830 7021 c-45 -23 -73 -71 -73 -124 0 -35 6 -46 41 -79 60 -56 117
-52 185 10 22 21 27 34 27 75 0 63 -33 111 -88 127 -49 13 -52 13 -92 -9z"/>
<path d="M8678 4747 c-54 -13 -88 -57 -88 -114 0 -38 5 -50 34 -79 32 -32 56
-40 111 -34 87 8 120 134 53 199 -35 34 -59 40 -110 28z"/>
<path d="M2890 2835 l0 -545 132 0 131 0 -6 158 c-4 86 -7 331 -7 545 l0 387
-125 0 -125 0 0 -545z"/>
<path d="M4520 3270 l0 -110 168 -2 167 -3 -4 -432 -3 -433 136 0 136 0 0 435
0 435 160 0 160 0 0 110 0 110 -460 0 -460 0 0 -110z"/>
<path d="M6036 1956 c3 -8 13 -17 22 -21 13 -5 13 -2 -3 15 -21 24 -26 25 -19
6z"/>
<path d="M5830 1899 c-50 -55 -60 -149 -24 -221 41 -81 157 -76 198 9 23 49
21 140 -5 183 -30 48 -48 59 -97 60 -36 0 -48 -5 -72 -31z"/>
<path d="M6086 1887 c3 -10 9 -15 12 -12 3 3 0 11 -7 18 -10 9 -11 8 -5 -6z"/>
<path d="M5691 1710 c0 -8 4 -22 9 -30 12 -18 12 -2 0 25 -6 13 -9 15 -9 5z"/>
<path d="M5996 1643 c-6 -14 -5 -15 5 -6 7 7 10 15 7 18 -3 3 -9 -2 -12 -12z"/>
<path d="M5730 1626 c0 -2 8 -10 18 -17 15 -13 16 -12 3 4 -13 16 -21 21 -21
13z"/>
<path d="M6030 1590 c-9 -6 -10 -10 -3 -10 6 0 15 5 18 10 8 12 4 12 -15 0z"/>
<path d="M5905 1550 l-60 -7 55 -1 c30 -1 62 3 70 8 8 5 11 9 5 8 -5 -1 -37
-4 -70 -8z"/>
<path d="M6938 2003 c7 -3 16 -2 19 1 4 3 -2 6 -13 5 -11 0 -14 -3 -6 -6z"/>
<path d="M6870 1990 c-9 -6 -10 -10 -3 -10 6 0 15 5 18 10 8 12 4 12 -15 0z"/>
<path d="M7045 1990 c3 -5 11 -10 16 -10 6 0 7 5 4 10 -3 6 -11 10 -16 10 -6
0 -7 -4 -4 -10z"/>
<path d="M6933 1953 c9 -2 25 -2 35 0 9 3 1 5 -18 5 -19 0 -27 -2 -17 -5z"/>
<path d="M6806 1933 c-6 -14 -5 -15 5 -6 7 7 10 15 7 18 -3 3 -9 -2 -12 -12z"/>
<path d="M6885 1940 c-3 -6 1 -7 9 -4 18 7 21 14 7 14 -6 0 -13 -4 -16 -10z"/>
<path d="M6998 1943 c7 -3 16 -2 19 1 4 3 -2 6 -13 5 -11 0 -14 -3 -6 -6z"/>
<path d="M6790 1884 c0 -16 5 -36 10 -44 6 -10 7 -2 3 25 -7 49 -13 58 -13 19z"/>
<path d="M6820 1816 c0 -2 8 -10 18 -17 15 -13 16 -12 3 4 -13 16 -21 21 -21
13z"/>
<path d="M7070 1781 c0 -5 7 -12 16 -15 14 -5 15 -4 4 9 -14 17 -20 19 -20 6z"/>
<path d="M6930 1755 c19 -7 42 -13 50 -13 8 0 -1 6 -20 13 -19 7 -42 13 -50
13 -8 0 1 -6 20 -13z"/>
<path d="M7126 1727 c3 -10 9 -15 12 -12 3 3 0 11 -7 18 -10 9 -11 8 -5 -6z"/>
<path d="M7040 1726 c0 -2 8 -10 18 -17 15 -13 16 -12 3 4 -13 16 -21 21 -21
13z"/>
<path d="M7134 1655 c-5 -24 -7 -42 -2 -39 8 5 23 73 16 79 -2 2 -8 -16 -14
-40z"/>
<path d="M6796 1617 c3 -10 9 -15 12 -12 3 3 0 11 -7 18 -10 9 -11 8 -5 -6z"/>
<path d="M6938 1593 c7 -3 16 -2 19 1 4 3 -2 6 -13 5 -11 0 -14 -3 -6 -6z"/>
<path d="M6983 1593 c9 -2 23 -2 30 0 6 3 -1 5 -18 5 -16 0 -22 -2 -12 -5z"/>
<path d="M6860 1560 c8 -5 22 -9 30 -9 10 0 8 3 -5 9 -27 12 -43 12 -25 0z"/>
<path d="M7050 1560 c-8 -5 -10 -10 -5 -10 6 0 17 5 25 10 8 5 11 10 5 10 -5
0 -17 -5 -25 -10z"/>
<path d="M6938 1543 c17 -2 47 -2 65 0 17 2 3 4 -33 4 -36 0 -50 -2 -32 -4z"/>
<path d="M2190 1992 c0 -4 16 -6 35 -4 l34 4 4 -93 3 -94 2 98 2 97 -40 0
c-22 0 -40 -4 -40 -8z"/>
<path d="M2260 1644 l0 -86 -35 4 c-19 2 -35 0 -35 -4 0 -4 18 -8 40 -8 l40 0
0 90 c0 50 -2 90 -5 90 -3 0 -5 -39 -5 -86z"/>
<path d="M2431 1983 c0 -11 3 -13 6 -5 2 6 20 12 39 12 20 0 33 -4 30 -8 -2
-4 4 -9 15 -9 17 -2 17 0 5 13 -8 8 -33 14 -55 14 -33 0 -41 -4 -40 -17z"/>
<path d="M2752 1863 l2 -138 3 133 4 132 29 0 c28 0 29 -2 33 -52 l3 -53 2 58
2 57 -40 0 -40 0 2 -137z"/>
<path d="M2564 1911 c0 -11 3 -18 7 -15 4 2 17 -8 29 -23 11 -16 16 -19 11 -8
-6 11 -19 30 -29 43 -17 21 -18 22 -18 3z"/>
<path d="M2551 1835 c0 -5 6 -18 13 -28 12 -16 14 -15 14 9 0 16 -3 21 -8 14
-6 -9 -9 -9 -13 1 -3 8 -6 10 -6 4z"/>
<path d="M2630 1826 c0 -2 8 -10 18 -17 15 -13 16 -12 3 4 -13 16 -21 21 -21
13z"/>
<path d="M2500 1689 l0 -131 -35 4 c-19 2 -35 0 -35 -4 0 -4 18 -8 40 -8 l40
0 0 135 c0 74 -2 135 -5 135 -3 0 -5 -59 -5 -131z"/>
<path d="M2599 1762 c6 -12 16 -24 22 -28 8 -4 8 -1 0 14 -6 12 -16 24 -22 28
-8 4 -8 1 0 -14z"/>
<path d="M2680 1756 c0 -2 8 -10 18 -17 15 -13 16 -12 3 4 -13 16 -21 21 -21
13z"/>
<path d="M2638 1706 c21 -33 85 -116 89 -116 6 0 -34 58 -60 87 -10 12 -17 26
-13 31 3 5 -1 9 -9 9 -8 0 -11 -5 -7 -11z"/>
<path d="M2820 1569 c0 -8 -14 -10 -40 -6 -23 3 -38 1 -34 -4 3 -5 23 -9 45
-9 28 0 39 4 39 15 0 8 -2 15 -5 15 -3 0 -5 -5 -5 -11z"/>
<path d="M2990 1992 c0 -4 17 -6 38 -4 58 5 62 10 10 11 -27 1 -48 -3 -48 -7z"/>
<path d="M3322 1863 l2 -138 3 133 4 133 27 -3 27 -3 0 -210 0 -210 -48 1
c-27 0 -42 -3 -35 -8 7 -4 32 -8 56 -8 l43 0 -1 225 -1 225 -40 0 -39 0 2
-137z"/>
<path d="M3106 1852 c-3 -5 1 -17 8 -27 10 -14 15 -15 21 -5 6 9 4 11 -5 5
-10 -6 -12 -4 -7 8 7 17 -8 33 -17 19z"/>
<path d="M3215 1791 c20 -28 39 -51 41 -51 7 0 -55 88 -67 96 -6 3 6 -17 26
-45z"/>
<path d="M3156 1768 c10 -14 21 -24 23 -22 3 3 -6 15 -18 27 l-24 22 19 -27z"/>
<path d="M2991 1664 c0 -11 3 -14 6 -6 3 7 2 16 -1 19 -3 4 -6 -2 -5 -13z"/>
<path d="M3245 1636 c10 -14 19 -26 22 -26 7 0 -17 39 -28 46 -6 3 -3 -5 6
-20z"/>
<path d="M2990 1558 c0 -4 16 -8 35 -8 19 0 35 2 35 4 0 2 -16 6 -35 8 -19 2
-35 0 -35 -4z"/>
<path d="M3728 2003 c12 -2 30 -2 40 0 9 3 -1 5 -23 4 -22 0 -30 -2 -17 -4z"/>
<path d="M3650 1985 c-14 -8 -20 -14 -14 -15 5 0 19 7 30 15 24 18 16 19 -16
0z"/>
<path d="M3819 1985 c18 -8 36 -15 40 -15 13 1 -45 29 -59 29 -8 0 0 -6 19
-14z"/>
<path d="M3879 1952 c6 -12 16 -24 22 -28 8 -4 8 -1 0 14 -6 12 -16 24 -22 28
-8 4 -8 1 0 -14z"/>
<path d="M3735 1949 c-28 -6 -26 -7 13 -8 42 -1 53 3 30 11 -7 2 -26 1 -43 -3z"/>
<path d="M3570 1915 c-7 -9 -11 -17 -9 -20 3 -2 10 5 17 15 14 24 10 26 -8 5z"/>
<path d="M3678 1901 c-70 -61 -76 -185 -13 -248 64 -64 166 -35 193 55 17 54
15 90 -7 137 -24 53 -51 76 -99 82 -33 4 -44 1 -74 -26z"/>
<path d="M3640 1900 c-6 -11 -8 -20 -6 -20 3 0 10 9 16 20 6 11 8 20 6 20 -3
0 -10 -9 -16 -20z"/>
<path d="M3840 1900 c6 -11 13 -20 16 -20 2 0 0 9 -6 20 -6 11 -13 20 -16 20
-2 0 0 -9 6 -20z"/>
<path d="M3866 1857 c3 -10 9 -15 12 -12 3 3 0 11 -7 18 -10 9 -11 8 -5 -6z"/>
<path d="M3951 1824 c0 -11 3 -14 6 -6 3 7 2 16 -1 19 -3 4 -6 -2 -5 -13z"/>
<path d="M3603 1765 c0 -27 2 -38 4 -22 2 15 2 37 0 50 -2 12 -4 0 -4 -28z"/>
<path d="M3871 1684 c0 -11 3 -14 6 -6 3 7 2 16 -1 19 -3 4 -6 -2 -5 -13z"/>
<path d="M3926 1653 c-6 -14 -5 -15 5 -6 7 7 10 15 7 18 -3 3 -9 -2 -12 -12z"/>
<path d="M3558 1644 c16 -31 39 -47 47 -34 4 6 1 9 -7 8 -7 -2 -12 5 -11 15 0
10 -2 16 -5 13 -3 -3 -12 0 -20 7 -13 10 -14 9 -4 -9z"/>
<path d="M3885 1600 c-40 -44 -159 -63 -230 -36 -12 4 -10 1 5 -8 35 -21 126
-20 175 3 34 15 88 61 73 61 -3 0 -13 -9 -23 -20z"/>
<path d="M3600 1586 c0 -2 7 -7 16 -10 8 -3 12 -2 9 4 -6 10 -25 14 -25 6z"/>
<path d="M4058 1993 c12 -2 32 -2 45 0 12 2 2 4 -23 4 -25 0 -35 -2 -22 -4z"/>
<path d="M4376 1984 c-5 -13 -3 -14 6 -6 7 6 29 12 48 15 34 4 34 4 -6 5 -31
2 -44 -2 -48 -14z"/>
<path d="M4090 1865 c0 -5 5 -17 10 -25 5 -8 10 -10 10 -5 0 6 -5 17 -10 25
-5 8 -10 11 -10 5z"/>
<path d="M4175 1835 c4 -11 11 -35 17 -52 5 -18 11 -33 14 -33 7 0 -8 53 -23
80 -9 15 -12 17 -8 5z"/>
<path d="M4382 1805 c-17 -37 -14 -45 4 -12 9 16 14 31 11 33 -2 2 -9 -7 -15
-21z"/>
<path d="M4351 1723 c-1 -6 -4 -20 -7 -30 -5 -17 -5 -17 6 0 6 10 9 23 6 30
-3 9 -5 9 -5 0z"/>
<path d="M4140 1715 c0 -5 5 -17 10 -25 5 -8 10 -10 10 -5 0 6 -5 17 -10 25
-5 8 -10 11 -10 5z"/>
<path d="M4161 1665 c0 -5 6 -21 14 -35 8 -14 14 -20 14 -15 0 6 -6 21 -14 35
-8 14 -14 21 -14 15z"/>
<path d="M4326 1655 c-9 -26 -7 -32 5 -12 6 10 9 21 6 23 -2 3 -7 -2 -11 -11z"/>
<path d="M4194 1577 c3 -10 6 -21 6 -23 0 -7 89 -4 94 4 2 4 -14 6 -37 3 -31
-3 -44 1 -55 15 -14 18 -14 18 -8 1z"/>
<path d="M4660 1985 c-9 -10 -9 -15 -1 -15 6 0 11 4 11 9 0 6 24 12 53 14 l52
3 -51 2 c-35 1 -55 -3 -64 -13z"/>
<path d="M4682 1865 c-17 -37 -14 -45 4 -12 9 16 14 31 11 33 -2 2 -9 -7 -15
-21z"/>
<path d="M4688 1800 l-26 -80 58 0 58 0 -26 80 c-14 44 -29 80 -32 80 -3 0
-18 -36 -32 -80z"/>
<path d="M4750 1851 c0 -6 4 -13 10 -16 6 -3 7 1 4 9 -7 18 -14 21 -14 7z"/>
<path d="M4606 1833 c-6 -14 -5 -15 5 -6 7 7 10 15 7 18 -3 3 -9 -2 -12 -12z"/>
<path d="M4830 1825 c0 -5 5 -17 10 -25 5 -8 10 -10 10 -5 0 6 -5 17 -10 25
-5 8 -10 11 -10 5z"/>
<path d="M4546 1685 c-9 -26 -7 -32 5 -12 6 10 9 21 6 23 -2 3 -7 -2 -11 -11z"/>
<path d="M4748 1693 c6 -2 18 -2 25 0 6 3 1 5 -13 5 -14 0 -19 -2 -12 -5z"/>
<path d="M4663 1643 c26 -2 68 -2 95 0 26 2 4 3 -48 3 -52 0 -74 -1 -47 -3z"/>
<path d="M4512 1585 c-7 -14 -12 -28 -12 -30 0 -8 79 -5 84 3 2 4 -11 6 -31 4
-34 -4 -36 -3 -29 22 8 33 3 33 -12 1z"/>
<path d="M4591 1594 c0 -11 3 -14 6 -6 3 7 2 16 -1 19 -3 4 -6 -2 -5 -13z"/>
<path d="M4841 1593 c-2 -33 12 -43 58 -41 l46 1 -44 6 c-31 4 -46 12 -52 26
-4 11 -8 15 -8 8z"/>
<path d="M5078 1993 c50 -2 134 -2 185 0 50 1 9 3 -93 3 -102 0 -143 -2 -92
-3z"/>
<path d="M5200 1731 l0 -170 -42 -4 -43 -4 48 -1 47 -2 0 175 c0 96 -2 175 -5
175 -3 0 -5 -76 -5 -169z"/>
<path d="M5505 1993 c16 -3 33 -10 37 -16 5 -8 8 -6 8 6 0 13 -8 17 -37 16
-35 -2 -35 -2 -8 -6z"/>
<path d="M5510 1560 l-35 -7 38 -2 c20 0 37 4 37 9 0 6 -1 9 -2 9 -2 -1 -19
-5 -38 -9z"/>
<path d="M6290 1993 c25 -3 54 -12 65 -21 20 -17 20 -17 1 6 -15 17 -28 22
-65 20 l-46 -1 45 -4z"/>
<path d="M6598 1993 c12 -2 32 -2 45 0 12 2 2 4 -23 4 -25 0 -35 -2 -22 -4z"/>
<path d="M6253 1875 c0 -38 2 -53 4 -32 2 20 2 52 0 70 -2 17 -4 1 -4 -38z"/>
<path d="M6380 1926 c0 -2 8 -10 18 -17 15 -13 16 -12 3 4 -13 16 -21 21 -21
13z"/>
<path d="M6651 1874 c0 -11 3 -14 6 -6 3 7 2 16 -1 19 -3 4 -6 -2 -5 -13z"/>
<path d="M6430 1856 c0 -2 8 -10 18 -17 15 -13 16 -12 3 4 -13 16 -21 21 -21
13z"/>
<path d="M6650 1686 l0 -125 -47 -4 -48 -3 53 -2 52 -2 0 130 c0 72 -2 130 -5
130 -3 0 -5 -56 -5 -124z"/>
<path d="M6455 1716 c10 -14 19 -26 22 -26 7 0 -17 39 -28 46 -6 3 -3 -5 6
-20z"/>
<path d="M6251 1598 c-1 -27 3 -48 7 -48 4 0 6 17 4 38 -5 58 -10 62 -11 10z"/>
<path d="M6320 1581 c0 -12 -8 -21 -22 -24 -20 -4 -19 -4 5 -6 23 -1 27 3 27
24 0 14 -2 25 -5 25 -3 0 -5 -9 -5 -19z"/>
<path d="M7543 1993 c31 -2 83 -2 115 0 31 2 5 3 -58 3 -63 0 -89 -1 -57 -3z"/>
<path d="M7580 1850 l0 -70 45 0 c84 0 132 48 104 103 -17 32 -28 37 -91 37
l-58 0 0 -70z"/>
<path d="M7753 1855 c0 -22 2 -30 4 -17 2 12 2 30 0 40 -3 9 -5 -1 -4 -23z"/>
<path d="M7832 1855 c0 -16 2 -22 5 -12 2 9 2 23 0 30 -3 6 -5 -1 -5 -18z"/>
<path d="M7628 1713 c18 -2 45 -2 60 0 15 2 0 4 -33 4 -33 0 -45 -2 -27 -4z"/>
<path d="M7508 1553 c12 -2 30 -2 40 0 9 3 -1 5 -23 4 -22 0 -30 -2 -17 -4z"/>
<path d="M7948 1993 c12 -2 32 -2 45 0 12 2 2 4 -23 4 -25 0 -35 -2 -22 -4z"/>
<path d="M8268 1993 c12 -2 32 -2 45 0 12 2 2 4 -23 4 -25 0 -35 -2 -22 -4z"/>
<path d="M8245 1969 c-4 -6 -5 -12 -2 -15 2 -3 7 2 10 11 7 17 1 20 -8 4z"/>
<path d="M8283 1883 c-3 -10 -8 -22 -11 -27 -3 -5 0 -6 5 -3 11 7 25 47 17 47
-3 0 -7 -8 -11 -17z"/>
<path d="M8261 1814 c0 -11 3 -14 6 -6 3 7 2 16 -1 19 -3 4 -6 -2 -5 -13z"/>
<path d="M8000 1765 c0 -5 5 -17 10 -25 5 -8 10 -10 10 -5 0 6 -5 17 -10 25
-5 8 -10 11 -10 5z"/>
<path d="M8081 1745 c1 -19 18 -51 18 -35 0 8 -4 22 -9 30 -5 8 -9 11 -9 5z"/>
<path d="M8152 1681 c-6 -17 -9 -31 -6 -31 7 0 25 52 20 57 -2 2 -8 -10 -14
-26z"/>
<path d="M8185 1606 c-17 -45 -19 -46 -62 -46 -40 0 -45 3 -55 31 -6 16 -12
28 -14 26 -2 -2 1 -18 7 -35 10 -30 14 -32 60 -32 50 0 50 0 70 46 11 26 18
49 15 51 -2 2 -12 -16 -21 -41z"/>
<path d="M8623 1993 c169 -3 177 -4 177 -23 0 -16 -7 -20 -37 -20 -21 0 -45
-5 -53 -11 -12 -9 -12 -10 3 -5 10 3 36 6 58 6 37 0 39 2 39 30 l0 30 -182 -2
-183 -3 178 -2z"/>
<path d="M8528 1933 c7 -3 16 -2 19 1 4 3 -2 6 -13 5 -11 0 -14 -3 -6 -6z"/>
<path d="M8578 1933 c6 -2 18 -2 25 0 6 3 1 5 -13 5 -14 0 -19 -2 -12 -5z"/>
<path d="M8668 1933 c7 -3 16 -2 19 1 4 3 -2 6 -13 5 -11 0 -14 -3 -6 -6z"/>
<path d="M8592 1603 l-2 -53 38 1 c36 1 36 2 7 8 -27 5 -31 11 -36 51 l-6 45
-1 -52z"/>
<path d="M8663 1610 c0 -25 2 -35 4 -22 2 12 2 32 0 45 -2 12 -4 2 -4 -23z"/>
<path d="M9172 1993 l37 -4 4 -132 3 -132 2 138 2 137 -42 -2 -43 -1 37 -4z"/>
<path d="M9212 1680 c0 -19 2 -27 5 -17 2 9 2 25 0 35 -3 9 -5 1 -5 -18z"/>
<path d="M9139 1588 l-5 -38 153 0 153 0 0 33 0 32 -85 -3 c-48 -2 -85 -8 -85
-14 0 -6 12 -7 30 -3 23 5 32 3 36 -10 4 -10 13 -13 25 -10 10 4 27 2 36 -4
13 -8 -18 -10 -112 -8 l-130 2 -6 30 c-5 30 -5 30 -10 -7z"/>
<path d="M9196 1585 c4 -8 8 -15 10 -15 2 0 4 7 4 15 0 8 -4 15 -10 15 -5 0
-7 -7 -4 -15z"/>
<path d="M9223 1585 c0 -8 4 -15 9 -15 4 0 8 7 8 15 0 8 -4 15 -8 15 -5 0 -9
-7 -9 -15z"/>
<path d="M9510 1965 l0 -35 53 2 52 2 -47 3 c-43 4 -48 7 -48 29 l0 24 160 0
c121 0 160 -3 160 -12 0 -9 4 -8 10 2 8 12 10 9 10 -11 0 -26 -2 -26 -47 -21
-62 6 -53 -3 10 -11 l47 -7 0 35 0 35 -180 0 -180 0 0 -35z"/>
<path d="M9638 1933 c7 -3 16 -2 19 1 4 3 -2 6 -13 5 -11 0 -14 -3 -6 -6z"/>
<path d="M9652 1738 l-2 -188 40 0 40 0 -2 188 -2 187 -3 -175 c-2 -96 -8
-179 -13 -184 -7 -7 -10 -3 -10 9 -1 20 -1 20 -15 1 -22 -29 -24 -11 -28 179
l-3 170 -2 -187z"/>
<path d="M10000 1786 c0 -119 0 -219 0 -223 0 -5 53 -8 118 -8 94 0 126 4 160
19 39 18 55 36 32 36 -5 0 -10 -4 -10 -9 0 -16 -82 -33 -114 -24 -15 4 -16 7
-5 14 7 4 10 11 6 15 -3 4 -14 1 -24 -7 -11 -9 -14 -10 -9 -1 4 7 1 12 -8 12
-9 0 -16 -7 -16 -15 0 -8 -5 -15 -11 -15 -5 0 -7 5 -4 10 3 6 1 10 -4 10 -6 0
-11 -8 -12 -17 -1 -10 -5 1 -11 25 -5 23 -13 42 -18 42 -5 0 -10 -19 -12 -42
l-3 -43 -12 35 -11 35 -1 -32 c-1 -18 -5 -33 -11 -33 -6 0 -9 81 -8 211 l1
211 110 -4 c69 -3 112 -9 115 -16 2 -6 9 -9 17 -6 9 4 12 0 9 -13 -3 -11 2
-25 10 -32 11 -9 16 -10 16 -2 0 6 -4 11 -10 11 -5 0 -10 7 -10 17 0 15 1 15
18 0 10 -10 22 -14 25 -10 4 3 7 1 7 -5 0 -7 -6 -12 -12 -12 -7 -1 -2 -7 12
-16 22 -13 22 -14 3 -9 -12 3 -24 1 -28 -5 -4 -7 -19 5 -37 30 -17 23 -34 37
-37 32 -3 -6 -36 -9 -74 -9 -37 1 -67 -1 -67 -5 0 -5 31 -8 69 -8 60 0 74 -4
100 -25 39 -33 54 -83 49 -157 -3 -41 -1 -54 5 -42 6 10 10 46 10 80 1 35 5
60 10 57 5 -3 7 -14 4 -24 -3 -11 -1 -17 3 -14 5 3 11 1 15 -5 4 -6 11 -8 16
-5 5 4 9 -8 9 -25 0 -18 -4 -29 -10 -25 -5 3 -10 0 -10 -9 0 -8 -3 -23 -6 -33
-5 -15 -4 -16 5 -3 9 12 10 9 5 -15 -9 -42 -11 -43 -51 -60 -43 -18 -43 -18
-43 0 0 9 6 12 18 9 14 -5 15 -4 2 5 -13 10 -8 15 12 12 4 0 5 5 2 13 -4 10
-13 7 -34 -12 -21 -18 -26 -28 -18 -33 7 -5 9 -11 5 -15 -3 -4 -13 -1 -22 6
-9 7 -18 11 -21 8 -2 -3 6 -12 19 -21 22 -14 27 -14 56 4 18 11 36 17 40 14
29 -18 66 94 59 183 -6 79 -34 130 -93 167 -45 28 -56 30 -167 34 l-118 3 0
-216z m340 94 c14 0 20 -29 10 -52 -8 -22 -9 -22 -9 5 -1 25 -9 32 -38 28 -8
-1 -10 5 -7 14 4 9 13 14 21 11 8 -3 18 -6 23 -6z"/>
<path d="M10185 1960 c-3 -5 -2 -10 4 -10 5 0 13 5 16 10 3 6 2 10 -4 10 -5 0
-13 -4 -16 -10z"/>
<path d="M10060 1868 c-4 -123 -3 -142 7 -145 12 -4 15 120 3 167 -7 33 -8 31
-10 -22z"/>
<path d="M10090 1774 l0 -146 66 4 c59 4 70 8 94 35 40 44 48 116 22 176 -25
55 -62 77 -132 77 l-50 0 0 -146z"/>
<path d="M10032 1860 c0 -14 2 -19 5 -12 2 6 2 18 0 25 -3 6 -5 1 -5 -13z"/>
<path d="M10335 1770 c3 -5 8 -10 11 -10 2 0 4 5 4 10 0 6 -5 10 -11 10 -5 0
-7 -4 -4 -10z"/>
<path d="M10031 1698 c-1 -19 4 -28 14 -28 8 0 18 0 23 0 4 0 7 6 7 13 0 6 -8
11 -17 9 -9 -1 -19 5 -21 15 -3 11 -5 8 -6 -9z"/>
<path d="M10322 1668 c-14 -14 -16 -28 -3 -28 9 0 24 30 18 36 -2 2 -9 -2 -15
-8z"/>
<path d="M10198 1583 c7 -3 16 -2 19 1 4 3 -2 6 -13 5 -11 0 -14 -3 -6 -6z"/>
</g>
</svg>
