<?xml version="1.0" standalone="no"?>
<!DOCTYPE svg PUBLIC "-//W3C//DTD SVG 20010904//EN"
 "http://www.w3.org/TR/2001/REC-SVG-20010904/DTD/svg10.dtd">
<svg version="1.0" xmlns="http://www.w3.org/2000/svg"
 width="1280.000000pt" height="853.000000pt" viewBox="0 0 1280.000000 853.000000"
 preserveAspectRatio="xMidYMid meet">

<g transform="translate(0.000000,853.000000) scale(0.100000,-0.100000)"
fill="#000000" stroke="none">
<path d="M0 4265 l0 -4265 6400 0 6400 0 0 4265 0 4265 -6400 0 -6400 0 0
-4265z m6475 3670 c208 -55 375 -223 429 -432 9 -34 16 -72 16 -85 0 -14 9
-33 20 -43 11 -10 20 -24 20 -31 0 -7 26 -20 58 -29 80 -23 184 -61 266 -97
64 -28 229 -123 266 -153 8 -7 38 -12 66 -11 47 1 56 5 111 56 114 106 252
160 412 160 164 0 298 -57 422 -180 209 -207 228 -503 47 -755 -61 -85 -60
-118 6 -243 92 -175 149 -313 176 -428 8 -32 16 -43 34 -48 14 -3 28 -15 31
-26 5 -16 15 -20 48 -20 23 0 71 -7 106 -15 177 -42 314 -172 382 -365 30 -85
32 -238 5 -320 -67 -202 -216 -341 -412 -386 -58 -13 -72 -21 -89 -47 -11 -17
-31 -34 -43 -37 -21 -4 -29 -21 -58 -117 -42 -140 -85 -250 -130 -332 -30 -55
-34 -68 -24 -86 7 -12 10 -33 9 -47 -3 -19 10 -40 54 -88 94 -101 147 -231
147 -361 0 -64 -30 -190 -59 -246 -58 -115 -201 -233 -331 -274 -137 -44 -317
-22 -455 56 -48 27 -71 34 -90 29 -19 -5 -35 0 -56 15 l-30 22 -32 -19 c-150
-92 -376 -200 -547 -262 -63 -22 -130 -47 -148 -55 -38 -17 -61 -20 -46 -6 5
6 72 33 149 61 274 101 571 254 624 322 l21 27 -34 63 c-85 156 -88 346 -8
508 42 85 145 187 238 236 149 79 291 93 433 43 58 -19 64 -20 80 -5 10 9 25
14 33 11 29 -12 144 242 193 427 17 64 17 68 -1 106 -17 37 -26 43 -101 70
-101 37 -179 88 -242 159 -64 71 -97 134 -121 229 -51 199 1 388 145 530 60
59 165 120 238 138 15 3 27 13 27 21 0 8 9 24 21 36 24 24 22 49 -17 169 -24
71 -159 354 -188 393 -12 15 -17 16 -34 6 -17 -10 -24 -10 -43 3 -22 14 -28
13 -84 -13 -133 -62 -269 -75 -410 -39 -326 83 -520 428 -414 738 18 54 19 67
9 87 -7 13 -10 35 -8 49 5 24 -4 31 -92 86 -123 76 -258 139 -387 181 l-102
33 -25 -27 c-14 -15 -34 -27 -46 -27 -11 0 -20 -6 -20 -14 0 -7 -18 -50 -41
-95 -73 -146 -209 -258 -374 -307 -92 -28 -247 -23 -348 10 -77 26 -163 77
-232 137 -43 38 -116 148 -141 213 -12 31 -28 52 -44 59 -14 7 -28 16 -31 21
-18 25 -296 -68 -482 -160 -141 -70 -207 -115 -207 -141 0 -12 -7 -29 -16 -38
-15 -14 -14 -23 6 -103 64 -249 -55 -504 -297 -639 -146 -82 -368 -82 -523 -2
-34 18 -48 20 -82 13 -41 -9 -42 -9 -115 -154 -67 -133 -116 -265 -142 -379
-8 -39 -7 -48 12 -73 12 -15 63 -48 114 -74 157 -78 263 -213 298 -379 18 -88
19 -142 0 -228 -40 -188 -196 -365 -367 -415 -45 -13 -58 -21 -58 -36 0 -11
-9 -29 -20 -41 l-20 -21 36 -120 c38 -122 99 -274 141 -349 20 -36 31 -45 68
-54 40 -10 51 -9 106 14 186 79 421 34 577 -109 110 -100 169 -221 187 -376
10 -82 -16 -189 -71 -296 -26 -52 -43 -97 -39 -104 13 -20 136 -96 266 -162
151 -78 314 -147 433 -182 90 -28 115 -49 29 -26 -161 44 -443 168 -637 280
-80 47 -91 50 -116 40 -21 -9 -34 -9 -48 -1 -15 8 -23 8 -27 0 -14 -22 -112
-77 -180 -100 -90 -30 -232 -33 -315 -5 -193 64 -334 213 -385 406 -19 69 -19
199 -1 266 17 66 68 161 114 215 50 58 52 118 7 209 -55 108 -155 383 -155
425 0 7 -16 23 -36 34 -20 12 -38 30 -41 41 -4 15 -14 20 -42 20 -48 0 -167
40 -236 80 -71 41 -162 141 -203 224 -176 354 52 766 443 802 39 3 75 12 80
19 6 6 20 17 33 24 12 6 22 20 22 31 0 45 85 276 151 409 66 133 71 146 61
177 -5 19 -8 42 -5 53 3 11 -12 43 -40 84 -162 236 -135 531 67 733 111 111
240 164 400 164 162 0 287 -50 396 -158 53 -53 70 -65 94 -63 16 2 39 -3 51
-9 20 -11 32 -7 93 29 111 65 255 128 412 181 80 27 154 50 164 52 12 2 23 15
28 34 4 18 18 35 33 42 19 9 25 19 25 45 0 18 7 58 16 88 60 204 230 370 434
423 74 20 231 20 305 1z m746 -385 c37 -20 18 -80 -26 -80 -12 0 -26 5 -33 12
-25 25 -8 78 26 78 7 0 22 -5 33 -10z m17 -572 c7 -7 12 -24 12 -38 0 -34 -17
-50 -52 -50 -37 0 -57 38 -40 75 13 27 58 35 80 13z m-3724 -314 c29 -29 12
-64 -31 -64 -28 0 -43 28 -32 58 10 26 41 29 63 6z m5504 -116 c4 -38 -30 -56
-64 -33 -13 8 -24 22 -24 30 0 19 30 35 60 32 19 -1 26 -9 28 -29z m-2678 12
c754 -44 1230 -436 1350 -1115 31 -177 30 -260 -4 -372 l-29 -92 31 -54 c17
-30 70 -108 117 -173 94 -130 175 -280 175 -324 0 -43 -19 -87 -46 -105 -14
-9 -60 -23 -102 -31 -103 -19 -122 -30 -122 -69 0 -17 9 -47 19 -68 38 -75 35
-92 -31 -163 -26 -28 -27 -33 -17 -62 12 -35 11 -38 -78 -155 l-36 -49 16 -91
c16 -92 12 -171 -11 -214 -27 -49 -112 -95 -171 -92 l-26 2 25 4 c68 11 116
35 145 70 27 34 30 47 33 118 2 47 -2 106 -11 142 l-14 62 49 63 c85 110 81
103 67 143 -7 19 -20 35 -29 35 -8 1 -1 7 16 14 37 16 84 74 84 103 0 10 -11
43 -25 71 -50 104 -31 126 132 152 62 10 76 16 93 40 47 67 29 138 -72 287
-35 50 -100 147 -146 214 -55 80 -81 127 -77 138 24 60 55 206 55 255 0 32 -9
113 -20 179 -104 605 -489 985 -1110 1097 -181 33 -458 34 -620 2 -269 -54
-443 -130 -625 -276 -188 -150 -373 -386 -463 -592 -48 -108 -99 -291 -118
-415 -41 -281 25 -570 196 -864 29 -49 78 -133 108 -185 66 -113 115 -244 138
-372 20 -103 24 -407 7 -488 -6 -31 -8 13 -5 147 8 364 -30 512 -213 813 -128
210 -183 334 -227 505 -20 79 -23 113 -22 285 0 210 12 283 70 457 96 285 299
559 562 757 91 69 264 160 368 195 81 27 259 62 359 71 44 4 82 8 85 8 3 1 79
-3 170 -8z m-27 -254 c-9 -103 0 -129 57 -167 l49 -34 1 -62 c0 -76 7 -98 26
-82 11 9 14 8 14 -2 0 -9 3 -10 8 -4 9 13 35 18 27 5 -9 -14 8 -13 23 2 8 8
12 8 12 1 0 -6 8 -13 19 -16 16 -4 19 3 25 47 3 28 6 115 6 194 0 113 3 142
14 142 9 0 12 -13 10 -47 -6 -88 -12 -353 -8 -353 3 0 9 10 14 23 8 20 9 20
10 2 0 -16 2 -17 9 -6 8 12 11 9 17 -14 7 -28 8 -28 15 -7 11 29 28 28 23 0
-4 -22 -4 -22 6 -2 6 11 40 43 75 70 61 47 64 51 74 111 6 34 11 65 10 70 -4
22 3 33 21 33 24 0 24 -3 6 -38 -7 -15 -17 -51 -21 -81 -5 -36 -14 -58 -28
-70 -49 -37 -117 -109 -117 -122 1 -8 12 -1 25 16 14 17 25 24 25 16 0 -8 6
-11 15 -7 9 3 18 -1 21 -9 4 -8 12 -15 20 -15 8 0 14 -4 14 -10 0 -5 -7 -7
-15 -4 -8 4 -15 4 -15 1 0 -3 6 -7 14 -10 9 -4 45 23 93 67 43 40 92 85 109
99 18 15 34 41 38 59 5 26 9 30 16 18 9 -13 11 -13 20 0 9 13 10 13 10 -1 0
-8 -39 -53 -87 -98 -104 -99 -171 -173 -149 -165 9 3 16 1 16 -6 0 -6 5 -8 11
-5 14 9 51 -25 45 -41 -3 -8 1 -11 10 -7 7 3 14 9 14 14 0 5 35 9 78 9 l77 1
60 69 c64 74 85 85 85 45 0 -20 -5 -25 -24 -25 -15 0 -33 -12 -49 -32 -57 -74
-63 -78 -130 -78 -67 0 -95 -14 -76 -37 7 -7 18 -13 25 -13 8 0 14 -5 14 -12
0 -21 34 -88 44 -89 6 0 2 -4 -9 -9 -17 -7 -16 -9 10 -10 26 -1 27 -3 10 -10
-14 -6 -2 -9 42 -9 62 -1 62 -1 135 62 40 34 82 70 92 80 23 20 52 22 62 5 9
-14 -23 -38 -42 -31 -15 6 -46 -16 -121 -88 l-51 -49 -99 -1 c-83 -1 -92 -3
-58 -10 39 -9 40 -10 41 -54 1 -25 -2 -45 -7 -45 -5 0 -9 -4 -9 -10 0 -6 40
-10 99 -10 l99 0 64 53 c34 28 71 61 80 72 13 15 19 17 29 8 16 -16 4 -43 -19
-43 -10 0 -48 -25 -84 -55 l-67 -54 -93 -3 c-66 -2 -92 -6 -91 -15 2 -7 -4
-10 -13 -6 -8 3 -14 2 -13 -3 1 -5 0 -12 -1 -16 -1 -5 -3 -11 -4 -15 -1 -5 -8
-19 -16 -33 -7 -14 -13 -27 -12 -30 5 -16 -12 -40 -29 -40 -21 0 -26 -15 -6
-24 8 -4 7 -5 -3 -5 -8 1 -35 0 -60 -1 -42 -2 -43 -3 -15 -10 65 -17 91 -11
143 30 l50 40 169 0 c157 0 171 1 188 20 19 21 50 27 59 11 18 -28 -111 -51
-292 -51 l-116 0 -47 -40 c-47 -40 -48 -40 -136 -41 -69 -2 -79 -3 -48 -9 22
-4 30 -8 18 -9 -13 0 -23 -5 -23 -10 0 -14 -40 -7 -50 9 -6 10 -10 -97 -10
-297 l0 -311 -26 -31 -26 -31 -119 0 -119 0 0 -152 0 -153 103 -104 c56 -57
97 -101 91 -98 -8 5 -11 -12 -10 -53 2 -60 2 -61 66 -125 37 -38 73 -65 85
-65 18 0 125 -97 125 -113 0 -16 -29 -5 -35 12 -8 27 -81 91 -104 91 -10 0
-48 31 -83 69 -64 67 -65 69 -72 137 l-7 69 -91 91 -90 92 3 151 4 151 -42 0
-42 0 5 -187 5 -188 69 -69 70 -69 1 -111 1 -111 53 -45 c51 -43 61 -60 39
-67 -5 -2 -15 9 -22 24 -7 16 -30 41 -52 57 l-40 30 0 111 0 111 -70 69 -70
69 0 188 0 188 -135 -1 -135 0 0 -174 0 -173 -88 -83 c-49 -46 -91 -92 -95
-101 -9 -25 -37 -23 -37 2 0 13 10 24 25 30 14 5 59 42 100 82 l76 73 2 173 2
172 -47 0 -48 0 0 -146 0 -146 -100 -95 -100 -96 -3 -196 -2 -196 -3 201 -2
201 100 94 100 94 0 142 0 143 -103 0 c-98 0 -105 1 -128 26 l-24 26 -3 373
-3 374 -42 3 c-23 2 -69 0 -102 -5 -33 -4 -152 -5 -265 -1 l-205 6 -33 35
c-32 34 -34 35 -87 28 -30 -3 -55 -11 -55 -16 0 -6 -7 -4 -15 5 -21 20 -19 29
6 21 11 -4 43 -1 71 5 l51 13 34 -42 35 -41 236 1 c244 0 286 5 260 27 -8 6
-23 30 -33 52 l-18 40 -95 0 c-91 0 -96 1 -129 30 -28 25 -42 30 -88 30 -29 0
-57 5 -60 10 -10 16 108 12 131 -5 10 -8 27 -15 37 -15 9 0 25 -9 34 -20 15
-17 30 -20 100 -20 l83 0 21 -42 c32 -65 47 -78 90 -78 33 0 40 4 45 25 3 14
18 34 31 45 24 19 43 20 277 22 150 1 217 4 166 7 l-86 6 -3 139 c-2 102 0
141 10 146 9 6 9 18 1 51 -10 39 -9 42 4 25 8 -11 15 -27 15 -35 1 -9 5 2 9
24 6 39 7 39 18 15 10 -23 11 -21 10 20 -1 42 -6 50 -70 112 l-68 67 0 59 c0
58 -1 59 -55 111 -40 39 -55 60 -55 80 0 15 -5 32 -11 38 -15 15 -3 33 21 33
17 0 18 -6 14 -47 -6 -47 -5 -49 45 -98 46 -44 51 -54 51 -93 0 -58 17 -88 89
-150 l60 -53 4 -67 3 -67 2 74 c2 56 5 72 15 68 8 -3 14 1 14 8 0 11 -5 12
-21 3 -19 -10 -20 -10 -7 6 19 23 32 16 47 -25 l12 -34 1 30 c1 24 -9 41 -42
73 -24 23 -46 39 -50 36 -11 -11 -36 16 -30 32 9 24 26 16 91 -47 56 -55 62
-59 63 -38 1 17 3 19 6 7 2 -10 11 -18 19 -18 8 0 15 8 15 18 1 16 2 16 6 -1
10 -39 23 -2 23 67 l0 73 -46 33 c-60 43 -78 86 -70 161 4 36 3 60 -4 64 -16
10 -12 25 9 25 17 0 18 -6 14 -64z m-542 -153 l-3 -96 39 -36 c127 -116 121
-112 173 -110 45 2 52 -1 104 -47 l55 -49 0 -187 c1 -119 -3 -188 -9 -188 -5
0 -10 20 -10 44 0 26 -6 51 -15 60 -22 22 -17 105 6 90 5 -3 9 31 9 76 l0 81
-46 49 c-44 47 -50 50 -98 50 -50 0 -53 2 -134 78 l-83 77 -4 85 c-2 50 -7 86
-14 88 -6 2 -11 8 -11 13 0 4 7 6 15 3 11 -5 13 -2 9 10 -4 11 -2 15 7 11 11
-4 13 -27 10 -102z m-149 -61 c-3 -60 -1 -70 20 -88 13 -12 38 -24 57 -28 34
-6 85 -46 239 -184 l72 -66 0 -120 c0 -67 -3 -131 -6 -143 -15 -54 -21 -14
-20 118 l1 141 -60 55 c-173 159 -201 181 -232 186 -17 3 -43 13 -57 24 -22
16 -25 25 -26 81 0 34 -4 62 -10 62 -5 0 -10 8 -10 18 0 14 2 15 10 2 8 -13
10 -12 10 4 0 11 3 16 7 12 4 -4 6 -37 5 -74z m-2027 -47 c0 -28 -3 -30 -35
-30 -26 0 -36 5 -38 18 -7 34 6 48 40 45 29 -3 33 -6 33 -33z m1831 -39 c1
-20 12 -39 40 -62 34 -30 46 -34 94 -34 l55 0 125 -106 c69 -59 127 -111 130
-118 3 -6 3 -65 0 -131 -8 -156 -12 -141 -18 55 l-3 75 -114 100 c-115 99
-116 100 -184 110 -66 9 -73 13 -120 62 -55 57 -66 86 -28 81 17 -2 22 -10 23
-32z m3562 -128 c16 -16 15 -53 -2 -67 -8 -7 -27 -11 -43 -9 -51 6 -41 88 11
88 12 0 27 -5 34 -12z m-3750 -25 c2 -11 18 -35 37 -53 36 -35 83 -47 185 -50
41 0 53 -7 128 -70 57 -48 91 -70 109 -70 30 0 73 -35 73 -60 0 -9 5 -21 12
-28 9 -9 8 -12 -6 -12 -23 0 -47 25 -41 43 7 17 -11 32 -49 41 -15 4 -66 38
-112 76 l-83 70 -87 0 -87 0 -48 45 c-26 25 -53 45 -59 45 -11 0 -14 33 -3 44
12 11 28 0 31 -21z m1779 -79 c-3 -3 -12 -4 -19 -1 -8 3 -5 6 6 6 11 1 17 -2
13 -5z m-2725 -91 c35 -31 16 -73 -34 -73 -38 0 -55 33 -33 66 18 28 41 31 67
7z m812 -15 c-1 -10 24 -42 56 -73 75 -71 66 -71 -15 0 -34 30 -67 55 -74 55
-12 0 -15 23 -4 34 12 12 38 1 37 -16z m1006 -7 c0 -5 -7 -12 -16 -15 -14 -5
-15 -4 -4 9 14 17 20 19 20 6z m-426 -447 c10 -26 7 -28 -14 -9 -17 15 -33 17
-151 10 -129 -7 -133 -8 -161 -37 -16 -17 -32 -27 -35 -24 -11 11 49 65 76 69
14 2 83 5 152 6 107 1 128 -1 133 -15z m1542 -26 c4 -7 0 -16 -10 -22 -10 -6
-34 -23 -53 -38 -34 -27 -40 -28 -155 -28 -77 0 -117 4 -113 10 4 6 55 10 120
10 l113 0 38 40 c42 43 49 46 60 28z m-2001 -48 c3 -5 30 -11 58 -12 l52 -1
-60 -6 c-33 -3 -66 -10 -72 -14 -9 -5 -13 -3 -13 7 0 10 6 13 18 9 15 -6 15
-5 3 10 -8 10 -9 17 -3 17 6 0 14 -4 17 -10z m-221 -19 c91 -17 110 -24 127
-45 20 -25 25 -26 122 -26 100 0 104 1 156 35 l53 35 116 -2 117 -2 -115 -5
c-105 -6 -118 -8 -155 -34 -22 -16 -43 -33 -46 -39 -4 -6 -49 -10 -120 -9
-113 2 -114 2 -139 31 -21 25 -38 33 -105 46 -44 8 -88 13 -97 10 -10 -2 -18
0 -18 5 0 5 -5 9 -11 9 -6 0 -9 -7 -5 -15 3 -8 1 -15 -4 -15 -11 0 -13 23 -3
33 9 9 5 10 127 -12z m2486 -16 c0 -8 0 -18 0 -22 -1 -5 -9 -7 -18 -5 -10 1
-37 -17 -62 -43 l-44 -45 -236 2 -235 2 232 6 232 5 46 45 c25 24 45 50 45 57
0 7 9 13 20 13 11 0 20 -7 20 -15z m-1844 -122 l-108 -4 -48 -40 c-29 -24 -46
-47 -43 -55 7 -19 -187 -15 -202 4 -7 8 -54 15 -143 19 -119 5 -132 8 -132 25
0 22 38 25 46 3 5 -12 30 -15 133 -15 90 -1 133 -5 151 -15 55 -32 130 -12
190 50 l34 35 115 -2 116 -2 -109 -3z m1958 -96 c-3 -9 -12 -17 -20 -17 -17 0
-19 37 -1 43 18 7 29 -7 21 -26z m-1927 -14 c-62 -4 -55 0 -166 -100 l-36 -33
-140 1 c-155 0 -350 13 -378 24 -13 6 -16 3 -11 -9 3 -9 1 -16 -5 -16 -6 0
-11 9 -11 20 0 18 5 19 43 14 23 -3 146 -7 272 -11 l230 -5 65 61 65 60 65 -1
65 -2 -58 -3z m1623 -22 c8 -10 26 -32 40 -50 25 -32 27 -32 112 -34 76 -2 88
-4 88 -19 0 -19 -34 -25 -45 -8 -3 6 -35 10 -70 10 l-64 0 -43 55 -43 55 -230
0 c-142 0 -225 4 -216 9 9 6 110 7 235 4 192 -4 223 -7 236 -22z m-1670 -70
c0 -6 19 -12 43 -14 41 -3 40 -4 -10 -5 -55 -2 -55 -2 -186 -124 -28 -26 -36
-28 -111 -28 -96 0 -86 16 12 19 64 2 68 3 127 53 33 29 71 64 85 79 26 29 40
35 40 20z m1428 -63 c39 -28 70 -54 67 -56 -3 -3 -36 16 -74 42 -57 39 -77 48
-115 48 -25 1 -46 5 -46 10 0 4 21 8 48 8 41 0 57 -7 120 -52z m112 43 c0 -5
55 -58 123 -119 l122 -109 70 -6 c54 -4 74 -2 87 10 20 18 38 10 38 -18 0 -17
-5 -19 -57 -14 -153 15 -137 8 -251 108 -59 51 -122 104 -140 116 -26 18 -31
26 -20 32 17 11 28 11 28 0z m-1448 -104 c-28 -11 -119 -85 -192 -157 -21 -21
-35 -25 -84 -25 l-58 0 -62 -65 c-70 -74 -110 -100 -128 -82 -18 18 7 39 39
35 24 -4 38 6 91 61 57 60 83 96 47 66 -9 -7 -15 -8 -15 -2 0 15 32 24 44 12
5 -5 28 -10 49 -10 31 0 50 9 91 42 28 23 56 47 61 54 34 39 100 84 123 83 26
0 26 -1 -6 -12z m1324 -117 c54 -56 100 -109 102 -119 7 -42 37 -54 136 -55
52 -1 92 -3 90 -5 -2 -2 1 -10 8 -18 17 -21 2 -27 -24 -9 -15 11 -45 16 -94
16 -63 0 -76 3 -103 26 -17 14 -31 34 -31 43 0 10 -42 59 -94 109 l-93 92 -64
1 c-58 2 -61 2 -24 9 88 16 86 17 191 -90z m-1773 73 c-7 -2 -19 -2 -25 0 -7
3 -2 5 12 5 14 0 19 -2 13 -5z m-50 -50 c-44 -59 -50 -64 -105 -79 -55 -14
-68 -12 -68 12 0 11 11 13 54 8 l54 -7 37 52 c20 28 41 51 46 51 6 0 -3 -17
-18 -37z m474 -54 c-60 -55 -67 -64 -67 -99 0 -42 -21 -62 -77 -74 -27 -6 -34
-14 -43 -44 -5 -20 -10 -46 -10 -57 0 -29 -22 -57 -70 -90 -29 -20 -44 -25
-52 -17 -16 16 0 32 31 32 43 0 77 44 84 109 7 55 25 80 60 81 40 0 57 19 57
61 0 42 0 42 105 133 62 53 47 23 -18 -35z m1208 -33 c65 -65 78 -86 50 -86
-8 0 -15 6 -15 13 0 18 -111 124 -135 130 -15 4 -13 5 7 6 21 1 43 -14 93 -63z
m-665 -172 l0 -171 -55 -52 -55 -52 0 -64 c0 -83 -11 -109 -59 -142 -35 -24
-40 -33 -41 -65 0 -33 5 -41 45 -70 29 -22 44 -41 45 -55 0 -13 5 -23 10 -23
6 0 10 -4 10 -10 0 -5 -7 -10 -15 -10 -10 0 -15 10 -15 28 0 23 -10 35 -51 63
-49 33 -50 35 -45 74 4 31 14 48 50 80 l45 40 4 81 5 80 53 52 54 51 -3 183
c-1 124 1 178 8 168 5 -8 10 -90 10 -186z m60 -352 c-30 -24 -31 -26 -29 -98
2 -40 0 -76 -4 -80 -16 -17 -24 15 -19 86 4 74 5 76 39 99 l35 23 -2 231 c-2
128 -1 246 1 262 2 17 5 -89 6 -235 l3 -264 -30 -24z m481 194 c146 -144 147
-144 202 -151 50 -6 59 -11 99 -57 23 -28 49 -56 56 -64 16 -17 15 -25 -3 -18
-8 4 -15 11 -15 16 0 6 -21 32 -47 59 -44 46 -50 49 -96 49 l-49 0 -160 160
-160 160 3 88 c3 123 13 126 19 5 l5 -102 146 -145z m-851 254 c0 -79 -1 -82
-35 -115 -33 -34 -37 -35 -110 -35 -75 0 -76 0 -110 -37 l-35 -38 0 -119 c0
-117 0 -119 -30 -153 -16 -18 -30 -43 -30 -53 0 -11 -4 -20 -10 -20 -18 0 -11
25 19 66 27 37 29 45 33 164 l4 125 37 38 c34 35 38 37 102 37 113 0 148 30
151 128 2 83 3 92 9 92 3 0 5 -36 5 -80z m897 -6 c4 -10 0 -20 -10 -26 -10 -5
-17 -17 -17 -28 0 -19 121 -150 140 -150 6 0 13 -7 16 -15 9 -22 71 -19 111 6
26 16 37 19 46 10 8 -8 7 -15 -5 -28 -13 -12 -33 -15 -85 -14 -37 1 -69 6 -71
11 -2 5 -10 6 -18 3 -8 -3 -14 1 -14 8 0 8 -31 45 -69 82 -60 59 -69 73 -68
100 4 52 30 77 44 41z m753 -154 c0 -5 5 -10 11 -10 5 0 7 5 4 10 -3 6 -1 10
4 10 6 0 11 -7 11 -16 0 -10 -7 -14 -22 -12 -22 3 -39 28 -19 28 6 0 11 -4 11
-10z m-345 -51 c28 -28 60 -55 73 -60 14 -5 22 -16 20 -26 -5 -26 -27 -27 -37
-1 -5 13 -30 43 -55 68 -38 37 -52 44 -83 43 -27 0 -30 1 -10 4 15 2 27 9 27
14 0 19 17 8 65 -42z m-3667 -106 c2 -24 -1 -33 -17 -38 -36 -11 -61 3 -61 35
0 31 12 40 50 37 20 -2 26 -8 28 -34z m2884 -98 c10 -4 13 -47 12 -207 -1
-126 -6 -204 -12 -206 -15 -5 -25 16 -17 36 11 24 5 345 -6 358 -5 6 -6 14 -2
17 8 8 8 8 25 2z m-1007 -35 c0 -22 -29 -18 -33 3 -3 14 1 18 15 15 10 -2 18
-10 18 -18z m-18 -232 c-1 -40 -3 -10 -3 67 0 77 1 110 3 73 2 -37 2 -100 0
-140z m3598 152 c11 -35 -3 -60 -35 -60 -19 0 -33 7 -40 20 -16 30 4 60 40 60
20 0 31 -6 35 -20z m-1615 -29 c0 -19 -23 -35 -34 -24 -14 15 -5 43 14 43 13
0 20 -7 20 -19z m-1697 -176 c-6 -18 -19 -19 -29 -4 -7 12 15 31 28 23 4 -3 5
-11 1 -19z m1472 -4 c7 -12 -12 -24 -25 -16 -11 7 -4 25 10 25 5 0 11 -4 15
-9z m-1758 -163 c-3 -7 -5 -2 -5 12 0 14 2 19 5 13 2 -7 2 -19 0 -25z m1323
22 c0 -5 -2 -10 -4 -10 -3 0 -8 5 -11 10 -3 6 -1 10 4 10 6 0 11 -4 11 -10z
m-1173 -22 c-17 -6 -29 -19 -33 -36 -9 -44 -12 -48 -13 -22 -1 35 25 70 52 69
19 0 19 -2 -6 -11z m1418 -78 c3 -5 1 -10 -4 -10 -6 0 -11 5 -11 10 0 6 2 10
4 10 3 0 8 -4 11 -10z m-1468 -57 c-3 -10 -5 -2 -5 17 0 19 2 27 5 18 2 -10 2
-26 0 -35z m-2033 11 c11 -29 6 -44 -19 -56 -30 -14 -55 3 -55 37 0 35 62 50
74 19z m2811 -24 l20 -25 -22 19 c-13 11 -23 24 -23 29 0 6 1 8 3 6 1 -2 11
-15 22 -29z m653 13 c-10 -2 -26 -2 -35 0 -10 3 -2 5 17 5 19 0 27 -2 18 -5z
m177 -18 l100 -14 -85 6 c-47 2 -103 8 -125 13 -64 12 0 9 110 -5z m-334 -22
c-12 -20 -14 -14 -5 12 4 9 9 14 11 11 3 -2 0 -13 -6 -23z m-1284 -15 c-3 -7
-5 -2 -5 12 0 14 2 19 5 13 2 -7 2 -19 0 -25z m1831 15 c-15 -2 -42 -2 -60 0
-18 2 -6 4 27 4 33 0 48 -2 33 -4z m-2171 -65 c-3 -8 -6 -5 -6 6 -1 11 2 17 5
13 3 -3 4 -12 1 -19z m336 2 c3 -11 1 -18 -4 -14 -5 3 -9 12 -9 20 0 20 7 17
13 -6z m204 -16 c-3 -3 -12 -4 -19 -1 -8 3 -5 6 6 6 11 1 17 -2 13 -5z m458
-34 c-6 -9 -9 -9 -16 1 -10 17 0 34 13 21 6 -6 7 -16 3 -22z m-1008 -2 c-3 -8
-6 -5 -6 6 -1 11 2 17 5 13 3 -3 4 -12 1 -19z m1590 -270 c-1 -51 -3 -10 -3
92 0 102 2 143 3 93 2 -51 2 -135 0 -185z m-1210 230 c-3 -7 -5 -2 -5 12 0 14
2 19 5 13 2 -7 2 -19 0 -25z m-400 -30 c-3 -8 -6 -5 -6 6 -1 11 2 17 5 13 3
-3 4 -12 1 -19z m1370 -20 c-3 -8 -6 -5 -6 6 -1 11 2 17 5 13 3 -3 4 -12 1
-19z m-457 -65 c-4 -42 -5 -44 -8 -15 -3 30 2 62 10 62 2 0 1 -21 -2 -47z
m457 -35 c-2 -18 -4 -6 -4 27 0 33 2 48 4 33 2 -15 2 -42 0 -60z m-212 52 c-3
-5 -1 -10 6 -10 10 0 10 -3 1 -12 -6 -6 -15 -9 -18 -5 -7 7 2 37 11 37 4 0 3
-4 0 -10z m2 -147 c-2 -21 -4 -6 -4 32 0 39 2 55 4 38 2 -18 2 -50 0 -70z
m855 -452 c69 -25 132 -61 188 -109 l45 -39 -92 -47 -92 -46 -47 29 c-47 30
-119 51 -178 51 -54 0 -134 -29 -173 -63 -88 -77 -120 -234 -69 -335 82 -161
264 -207 419 -106 35 23 37 27 37 75 l0 51 -92 -3 -93 -3 -3 82 -3 82 206 0
205 0 0 -158 c0 -157 0 -159 -28 -200 -35 -52 -93 -96 -174 -129 -53 -22 -83
-27 -183 -31 -110 -4 -127 -2 -198 22 -140 47 -228 122 -289 244 -27 54 -32
77 -36 160 -5 109 10 180 56 265 54 100 186 193 316 223 76 17 206 10 278 -15z
m-3976 -18 c8 -21 46 -119 84 -218 179 -467 212 -553 230 -597 11 -26 20 -52
20 -58 0 -7 -37 -10 -116 -8 l-116 3 -32 78 -31 79 -150 0 c-82 0 -161 0 -175
-1 -22 -1 -29 -11 -53 -79 l-28 -79 -120 1 c-65 1 -119 4 -119 7 0 4 43 118
96 255 53 137 101 265 108 284 35 95 106 280 125 323 l20 47 121 0 120 0 16
-37z m664 -422 l0 -460 -110 0 -110 -1 0 460 0 460 110 0 110 0 0 -459z m515
299 c61 -88 146 -213 190 -277 l80 -117 3 277 2 277 110 0 110 0 0 -460 0
-460 -114 0 -113 0 -40 58 c-41 57 -78 111 -220 317 -41 61 -86 125 -99 144
l-24 34 0 -277 0 -277 -112 3 -113 3 -3 445 c-1 245 0 451 3 458 3 8 36 12
118 12 l113 0 109 -160z m1305 55 l0 -104 -117 -3 -118 -3 -3 -352 -2 -353
-110 0 -110 0 0 355 0 355 -120 0 -120 0 0 105 0 105 350 0 350 0 0 -105z
m725 3 l4 -98 -195 0 -195 0 3 -82 3 -83 180 -5 181 -5 -1 -90 0 -90 -182 -3
-183 -2 0 -80 0 -80 198 -2 197 -3 3 -98 3 -97 -310 2 -310 3 -5 260 c-2 143
-1 349 2 458 l5 197 299 -2 298 -3 5 -97z m1648 93 l127 -1 0 -95 0 -95 -195
0 -195 0 0 -79 0 -80 43 -6 c23 -4 53 -5 67 -4 14 1 76 1 138 1 l112 -2 0 -89
c0 -74 -3 -90 -17 -95 -9 -4 -78 -6 -152 -6 -75 1 -148 1 -163 0 l-28 0 0 -80
0 -80 200 0 200 0 0 -100 0 -100 -310 0 -310 0 0 453 c0 250 2 456 4 458 2 2
82 3 178 2 95 -1 230 -2 301 -2z m594 -141 c50 -74 105 -155 123 -180 17 -25
58 -83 91 -130 32 -47 62 -86 66 -87 5 -2 7 118 6 267 l-3 270 110 0 110 0 0
-455 0 -455 -105 0 -104 0 -63 90 c-35 50 -83 119 -108 154 -25 35 -83 119
-130 186 l-85 123 -3 -277 -2 -276 -110 0 -110 0 0 455 0 456 112 -3 113 -3
92 -135z m1383 63 l-1 -78 -140 -175 c-180 -224 -289 -366 -289 -377 0 -8 21
-9 288 -12 l152 -1 0 -95 0 -95 -370 0 -370 0 0 78 0 79 209 279 209 279 -200
5 -201 5 -1 93 -1 92 358 0 357 0 0 -77z m-5689 -1090 c55 -33 83 -87 87 -169
5 -89 -8 -131 -54 -177 -85 -85 -247 -60 -297 46 -61 127 -2 288 116 318 44
11 113 3 148 -18z m1790 16 c40 -14 85 -53 105 -91 21 -40 28 -136 15 -186
-26 -94 -117 -150 -215 -131 -61 11 -80 22 -111 64 -35 45 -52 143 -36 201 17
62 51 106 101 132 49 24 90 28 141 11z m901 1 c35 -10 98 -61 98 -80 0 -4 -16
-11 -35 -14 -27 -5 -39 -2 -55 14 -23 23 -98 28 -118 8 -16 -16 -15 -53 1 -66
6 -5 40 -18 73 -27 77 -21 131 -64 140 -109 9 -49 -20 -105 -64 -123 -39 -16
-135 -19 -172 -5 -34 14 -86 70 -74 81 15 14 64 23 64 11 0 -15 56 -40 90 -40
47 0 70 16 70 50 0 25 -6 30 -47 45 -137 49 -173 79 -173 146 0 85 98 138 202
109z m-4017 -205 l0 -200 -36 -3 -36 -3 -6 96 c-3 53 -3 146 0 206 l6 110 36
-3 36 -3 0 -200z m280 97 c39 -58 78 -120 88 -137 17 -29 17 -28 17 108 l0
137 40 0 40 0 0 -205 0 -205 -37 0 c-38 0 -39 2 -133 145 -52 80 -95 145 -95
145 0 0 1 -65 3 -145 l3 -145 -40 0 -41 0 0 205 0 205 43 0 42 -1 70 -107z
m470 -13 c44 -67 85 -133 92 -148 10 -22 12 -2 13 122 l0 147 35 0 35 0 0
-205 0 -205 -35 0 c-34 0 -38 4 -126 138 -50 75 -92 138 -94 140 -1 1 -2 -21
-1 -50 0 -29 0 -93 -2 -141 l-2 -88 -37 3 -38 3 -3 203 -2 202 42 0 43 0 80
-121z m868 -33 c28 -82 52 -145 54 -140 2 5 25 72 51 149 l47 140 44 3 c39 3
43 1 36 -15 -4 -10 -31 -88 -60 -173 -30 -85 -59 -170 -65 -188 -12 -32 -14
-33 -58 -30 l-46 3 -68 195 c-37 107 -68 199 -68 203 0 5 19 7 42 5 l41 -3 50
-149z m492 132 c4 -13 24 -68 45 -123 21 -55 52 -137 69 -183 l30 -83 -41 3
c-38 3 -42 6 -58 48 l-18 45 -78 0 -78 0 -15 -47 c-14 -46 -16 -48 -53 -48
-24 0 -38 5 -38 13 0 6 32 99 71 205 l72 192 43 0 c36 0 44 -4 49 -22z m475
-13 l0 -35 -60 0 -60 0 0 -170 0 -170 -40 0 -40 0 0 170 0 170 -60 0 c-59 0
-60 0 -60 28 0 16 3 32 7 35 3 4 75 7 160 7 l153 0 0 -35z m175 3 c3 -18 5
-109 3 -203 l-3 -170 -42 -3 -43 -3 0 205 0 206 40 0 c36 0 40 -2 45 -32z
m771 -111 l94 -138 0 141 0 140 40 0 40 0 0 -206 0 -205 -42 3 c-41 3 -41 3
-135 142 l-93 140 0 -143 0 -142 -37 3 -38 3 -3 203 -2 203 41 -3 c42 -3 42
-4 135 -141z m1150 101 c29 -32 34 -45 34 -86 0 -93 -56 -140 -167 -141 l-53
-1 0 -70 0 -70 -40 0 -40 0 0 206 0 206 116 -4 116 -3 34 -37z m235 -119 l52
-162 50 162 51 161 42 0 42 0 -9 -32 c-5 -18 -36 -109 -68 -203 l-58 -170 -49
-3 -50 -3 -21 63 c-11 35 -42 122 -67 193 -25 72 -46 136 -46 143 0 7 15 12
40 12 l39 0 52 -161z m629 126 l0 -35 -60 0 -60 0 0 -170 0 -170 -40 0 -40 0
0 170 0 170 -60 0 -60 0 0 35 0 35 160 0 160 0 0 -35z m350 -130 l0 -165 95 0
95 0 0 -40 0 -40 -135 0 -135 0 0 205 0 205 40 0 40 0 0 -165z m528 128 l3
-33 -60 0 -61 0 0 -170 0 -170 -40 0 -40 0 0 170 0 170 -60 0 -60 0 0 35 0 36
158 -3 157 -3 3 -32z m342 15 c81 -41 114 -129 90 -241 -8 -41 -20 -63 -48
-90 -47 -46 -84 -57 -194 -57 l-88 0 0 205 0 205 98 0 c82 0 105 -4 142 -22z"/>
<path d="M6183 7915 c-149 -32 -302 -151 -375 -290 -55 -106 -86 -245 -55
-245 14 0 37 -40 37 -63 0 -7 -7 -25 -15 -41 -19 -36 -9 -70 42 -156 65 -111
178 -205 298 -250 82 -31 254 -39 342 -17 81 21 164 64 231 118 97 80 198 260
173 308 -18 32 -13 60 15 88 26 26 26 27 14 94 -12 69 -63 189 -101 238 -49
64 -124 131 -179 160 -122 65 -286 87 -427 56z m238 -228 c158 -66 197 -270
81 -428 -46 -62 -181 -199 -197 -199 -18 0 -149 142 -196 213 -52 80 -73 147
-66 212 11 106 74 182 177 216 36 12 160 3 201 -14z"/>
<path d="M6228 7677 c-103 -29 -158 -105 -158 -219 0 -54 5 -75 33 -127 33
-63 183 -239 203 -240 24 -2 173 169 204 233 40 81 46 129 26 198 -35 121
-176 191 -308 155z m114 -87 c53 -15 88 -61 88 -116 0 -88 -54 -141 -134 -131
-30 4 -50 15 -73 41 -60 65 -39 167 41 202 38 16 33 16 78 4z"/>
<path d="M6283 7568 c-111 -29 -87 -208 28 -208 54 0 98 48 99 106 0 72 -59
120 -127 102z"/>
<path d="M4283 7235 c-94 -26 -174 -73 -248 -149 -182 -184 -214 -447 -82
-667 43 -73 69 -98 98 -92 34 6 72 -25 72 -61 0 -33 20 -48 114 -81 197 -68
404 -27 554 112 119 111 181 247 182 399 0 110 -32 224 -63 224 -31 0 -51 29
-48 70 5 84 -141 203 -299 244 -74 19 -210 20 -280 1z m196 -229 c31 -19 81
-44 111 -56 87 -35 84 -31 92 -106 9 -86 -6 -205 -33 -261 -25 -51 -106 -128
-177 -166 l-52 -28 -61 32 c-136 73 -200 172 -207 321 -2 48 -1 107 2 131 7
44 8 44 74 70 37 15 90 42 117 61 28 19 56 34 64 35 7 1 39 -14 70 -33z"/>
<path d="M4345 6978 c-39 -22 -90 -48 -115 -58 -39 -15 -46 -22 -53 -56 -5
-22 -7 -76 -5 -121 7 -142 78 -246 210 -309 36 -17 39 -17 79 2 23 10 68 43
100 74 78 76 99 134 99 279 l0 108 -47 18 c-27 9 -79 35 -118 58 -38 22 -72
41 -75 43 -3 1 -37 -16 -75 -38z m109 -269 c-43 -43 -84 -79 -90 -79 -13 0
-74 65 -74 80 0 18 13 11 40 -22 l27 -32 29 21 c16 12 54 47 84 77 30 31 57
51 59 45 2 -6 -32 -47 -75 -90z"/>
<path d="M8025 7243 c-110 -27 -209 -79 -292 -154 -43 -38 -50 -50 -46 -72 10
-50 -4 -75 -47 -87 -38 -10 -40 -14 -60 -78 -40 -129 -28 -276 33 -402 76
-157 221 -269 389 -304 141 -29 245 -17 376 44 56 26 62 32 62 59 0 39 37 66
80 58 25 -6 34 -1 65 36 74 86 125 228 125 346 0 253 -181 480 -436 545 -58
15 -203 20 -249 9z m235 -296 c14 -7 31 -26 39 -43 12 -29 19 -32 67 -36 39
-3 61 -11 79 -28 25 -23 25 -25 25 -191 0 -163 -1 -169 -24 -196 l-24 -28
-229 2 c-309 3 -349 8 -385 43 l-28 28 1 144 c1 79 4 154 8 167 12 46 50 63
142 64 79 2 84 3 87 24 6 44 47 63 136 63 44 0 92 -6 106 -13z"/>
<path d="M8051 6914 c-12 -15 -21 -33 -21 -40 0 -11 -20 -14 -84 -14 -74 0
-88 -3 -110 -22 -24 -22 -26 -29 -32 -173 -7 -149 -6 -151 17 -178 l24 -28
274 -9 c178 -6 280 -6 292 1 34 18 39 46 39 202 0 184 -3 189 -104 197 -58 5
-61 6 -64 32 -5 44 -36 58 -128 58 -77 0 -84 -2 -103 -26z m173 -98 c51 -21
89 -77 94 -141 9 -104 -62 -177 -170 -177 -95 1 -162 70 -162 168 -1 120 124
198 238 150z m-307 -21 c9 -24 -1 -27 -15 -5 -8 13 -8 20 -2 20 6 0 13 -7 17
-15z"/>
<path d="M8100 6784 c-46 -19 -72 -56 -78 -110 -9 -82 63 -153 146 -142 68 10
103 46 117 120 8 45 -21 97 -71 125 -45 26 -66 28 -114 7z"/>
<path d="M3595 5550 c-252 -51 -441 -299 -421 -556 11 -141 57 -246 153 -345
70 -73 147 -117 248 -144 66 -17 125 -20 125 -6 0 18 56 29 96 19 90 -23 264
84 353 218 175 265 77 633 -205 766 l-83 38 -25 -25 c-14 -14 -33 -25 -44 -25
-22 0 -62 35 -62 55 0 17 -64 19 -135 5z m221 -268 c64 -33 97 -66 128 -126
93 -183 -40 -397 -248 -398 -115 -1 -211 63 -258 170 -16 36 -19 60 -16 116 7
100 40 157 130 225 60 45 189 52 264 13z"/>
<path d="M3595 5271 c-101 -46 -158 -132 -158 -241 -1 -108 54 -189 161 -238
194 -88 415 114 347 318 -47 142 -219 221 -350 161z m126 -77 c10 -12 10 -20
1 -35 -7 -10 -12 -39 -12 -64 l0 -45 64 0 c39 0 66 4 68 11 2 7 13 9 26 4 26
-8 25 -23 -2 -39 -14 -8 -20 -8 -23 2 -3 8 -27 12 -69 12 l-64 0 0 -63 c0 -36
5 -68 12 -75 10 -9 8 -16 -5 -29 -16 -16 -18 -16 -34 0 -13 13 -14 20 -5 29 7
7 12 39 12 75 l0 63 -47 0 c-29 0 -53 -6 -65 -16 -14 -14 -20 -14 -33 -4 -32
27 -3 60 35 40 10 -6 39 -10 64 -10 l46 0 0 54 c0 32 -5 56 -11 58 -9 3 -9 10
0 26 14 26 24 28 42 6z"/>
<path d="M8845 5530 c-34 -35 -77 -40 -101 -11 -21 24 -59 15 -157 -36 -91
-48 -169 -133 -219 -241 -33 -70 -40 -96 -45 -170 -3 -48 0 -114 6 -147 36
-193 191 -360 389 -419 51 -15 54 -15 75 4 27 26 73 26 89 0 16 -25 35 -25
120 -1 155 44 264 134 333 274 81 165 83 312 6 472 -81 170 -227 274 -417 299
-47 6 -52 4 -79 -24z m85 -230 c61 -31 70 -59 70 -207 0 -103 -4 -136 -19
-169 -41 -91 -171 -98 -232 -13 -23 32 -24 42 -24 176 0 159 8 181 76 215 44
23 81 23 129 -2z m-260 -320 c0 -69 48 -140 115 -171 49 -23 91 -24 141 -3 69
28 114 87 129 167 4 20 11 34 16 32 12 -8 0 -63 -27 -117 -26 -52 -77 -93
-136 -109 -34 -9 -38 -13 -38 -42 0 -43 15 -57 62 -57 21 0 38 -4 38 -10 0 -6
-40 -10 -99 -10 -56 0 -103 4 -106 10 -4 6 9 10 32 10 47 0 63 14 63 56 0 28
-4 33 -32 39 -75 16 -138 72 -164 143 -16 44 -18 92 -4 92 6 0 10 -14 10 -30z"/>
<path d="M8814 5290 c-11 -4 -33 -23 -48 -41 l-27 -32 3 -139 3 -140 37 -34
c50 -46 107 -48 158 -5 l35 29 3 142 c2 93 0 152 -8 170 -20 48 -99 73 -156
50z"/>
<path d="M4247 3909 c-80 -12 -177 -56 -177 -81 0 -10 -11 -30 -25 -44 -20
-19 -32 -24 -53 -20 -24 6 -32 0 -68 -46 -107 -138 -140 -299 -96 -469 67
-255 331 -430 588 -389 73 12 155 44 217 87 30 21 37 32 37 58 0 42 28 67 72
63 32 -3 34 -2 77 86 43 85 45 93 49 196 4 90 1 120 -16 177 -47 152 -171 287
-322 349 -46 18 -193 47 -218 43 -4 -1 -33 -5 -65 -10z m174 -229 c36 -26 56
-64 65 -121 4 -29 17 -54 35 -73 29 -28 29 -28 29 -160 0 -141 -12 -180 -60
-206 -27 -15 -284 -14 -311 1 -11 6 -29 25 -39 42 -17 27 -20 51 -20 163 0
126 1 131 25 154 17 16 25 34 25 57 0 38 23 98 48 127 44 49 144 57 203 16z"/>
<path d="M4280 3682 c-54 -24 -89 -80 -90 -144 l0 -27 124 -3 c156 -4 156 -4
156 35 0 96 -108 175 -190 139z"/>
<path d="M4160 3470 c-18 -18 -20 -33 -20 -150 0 -129 0 -130 29 -162 l29 -33
137 0 137 0 29 33 c29 32 29 32 29 166 0 175 11 166 -193 166 -144 0 -159 -2
-177 -20z m234 -85 c20 -19 26 -33 26 -68 0 -61 -29 -97 -79 -97 -48 0 -79 23
-87 65 -18 100 71 164 140 100z"/>
<path d="M4287 3372 c-25 -27 -22 -97 4 -123 22 -22 67 -21 96 2 20 18 17 102
-5 122 -25 22 -75 21 -95 -1z"/>
<path d="M8181 3880 c-155 -41 -291 -149 -356 -283 -42 -89 -54 -142 -55 -232
0 -132 66 -301 123 -316 40 -11 57 -28 57 -58 0 -29 33 -56 115 -92 80 -36
144 -49 236 -49 146 0 273 52 374 154 198 199 207 500 23 701 -55 60 -65 66
-90 61 -22 -4 -35 0 -54 19 -13 13 -24 33 -24 43 0 23 -48 45 -135 61 -81 15
-128 13 -214 -9z m282 -270 c44 0 54 -4 88 -39 l39 -39 0 -143 c0 -125 -3
-148 -19 -173 -32 -48 -55 -55 -187 -56 -110 0 -123 -2 -140 -21 -25 -28 -90
-69 -109 -69 -11 0 -15 11 -15 43 0 37 -4 46 -25 55 -14 6 -34 26 -45 44 -18
29 -20 51 -20 180 0 143 1 147 26 177 37 44 71 51 223 46 74 -3 156 -5 184 -5z"/>
<path d="M8105 3586 c-48 -21 -59 -50 -63 -164 -7 -162 4 -200 71 -245 11 -8
18 -26 19 -50 1 -20 4 -37 7 -37 10 0 53 30 84 59 27 25 32 26 158 26 l131 0
29 33 29 32 0 143 c0 158 -5 173 -64 201 -45 21 -354 23 -401 2z m129 -181
c20 -20 10 -45 -19 -45 -30 0 -42 30 -19 47 22 16 19 16 38 -2z m121 -20 c0
-14 -8 -21 -27 -23 -24 -3 -28 0 -28 23 0 23 4 26 28 23 19 -2 27 -9 27 -23z
m110 0 c0 -22 -31 -33 -47 -17 -17 17 -1 44 24 40 15 -2 23 -10 23 -23z"/>
<path d="M7235 5930 c3 -5 8 -10 11 -10 2 0 4 5 4 10 0 6 -5 10 -11 10 -5 0
-7 -4 -4 -10z"/>
<path d="M6775 5900 c3 -5 8 -10 11 -10 2 0 4 5 4 10 0 6 -5 10 -11 10 -5 0
-7 -4 -4 -10z"/>
<path d="M5809 5391 l-24 -19 0 -395 c0 -374 1 -396 19 -416 19 -21 24 -21
482 -21 l463 0 15 22 c14 19 16 69 16 340 0 205 -4 318 -10 318 -5 0 -10 -10
-10 -21 0 -18 -2 -19 -15 -9 -12 10 -15 10 -15 -4 0 -9 -8 -16 -19 -16 -11 0
-23 -4 -26 -10 -9 -14 -42 -12 -48 3 -5 11 -12 -449 -8 -480 1 -9 -18 -13 -68
-13 l-70 0 -3 286 c-3 245 -1 287 12 296 13 8 12 9 -2 4 -9 -3 -18 -2 -20 2
-2 4 -19 15 -38 25 -19 9 -29 17 -22 17 16 0 16 20 -1 20 -8 0 -27 11 -43 25
-16 14 -34 25 -41 25 -6 0 -13 5 -15 12 -6 17 -103 26 -304 27 -165 1 -184 -1
-205 -18z m475 -298 c32 -87 69 -189 83 -228 14 -38 33 -93 44 -120 28 -75 28
-75 -49 -75 l-68 0 -17 60 -18 60 -103 0 -104 0 -18 -57 -19 -58 -67 -3 c-38
-2 -68 -1 -68 1 0 4 68 200 150 432 24 66 50 126 58 133 9 6 43 12 77 12 l61
0 58 -157z m196 97 c0 -11 -4 -20 -9 -20 -6 0 -9 9 -8 20 1 11 5 20 9 20 4 0
8 -9 8 -20z"/>
<path d="M6122 5006 c-17 -55 -32 -103 -32 -106 0 -3 29 -6 65 -7 36 -1 65 1
65 5 0 4 -15 53 -33 108 l-32 102 -33 -102z"/>
<path d="M6995 5340 c-3 -5 -3 -10 1 -10 4 0 -1 -7 -12 -15 -19 -14 -19 -14 2
-15 12 0 24 7 28 15 3 8 1 15 -5 15 -6 0 -7 5 -4 10 3 6 4 10 1 10 -3 0 -8 -4
-11 -10z"/>
<path d="M5400 6020 c0 -5 5 -10 11 -10 5 0 7 5 4 10 -3 6 -8 10 -11 10 -2 0
-4 -4 -4 -10z"/>
<path d="M5070 5670 c0 -5 5 -10 10 -10 6 0 10 5 10 10 0 6 -4 10 -10 10 -5 0
-10 -4 -10 -10z"/>
<path d="M4980 4930 c0 -5 5 -10 10 -10 6 0 10 5 10 10 0 6 -4 10 -10 10 -5 0
-10 -4 -10 -10z"/>
<path d="M5260 4890 c0 -5 7 -10 15 -10 8 0 15 5 15 10 0 6 -7 10 -15 10 -8 0
-15 -4 -15 -10z"/>
<path d="M7580 4889 c0 -5 5 -7 10 -4 6 3 10 8 10 11 0 2 -4 4 -10 4 -5 0 -10
-5 -10 -11z"/>
<path d="M7510 4750 c0 -5 5 -10 10 -10 6 0 10 5 10 10 0 6 -4 10 -10 10 -5 0
-10 -4 -10 -10z"/>
<path d="M7580 4520 c0 -5 5 -10 10 -10 6 0 10 5 10 10 0 6 -4 10 -10 10 -5 0
-10 -4 -10 -10z"/>
<path d="M5210 4340 c0 -5 5 -10 10 -10 6 0 10 5 10 10 0 6 -4 10 -10 10 -5 0
-10 -4 -10 -10z"/>
<path d="M5068 4493 c7 -3 16 -2 19 1 4 3 -2 6 -13 5 -11 0 -14 -3 -6 -6z"/>
<path d="M5385 4140 c-3 -5 -2 -10 4 -10 5 0 13 5 16 10 3 6 2 10 -4 10 -5 0
-13 -4 -16 -10z"/>
<path d="M6250 3800 c0 -5 5 -10 11 -10 5 0 7 5 4 10 -3 6 -8 10 -11 10 -2 0
-4 -4 -4 -10z"/>
<path d="M7079 4174 c-12 -14 -11 -16 5 -13 11 2 21 10 24 17 5 17 -13 15 -29
-4z"/>
<path d="M7300 4110 c0 -5 5 -10 11 -10 5 0 7 5 4 10 -3 6 -8 10 -11 10 -2 0
-4 -4 -4 -10z"/>
<path d="M6445 3590 c3 -5 8 -10 11 -10 2 0 4 5 4 10 0 6 -5 10 -11 10 -5 0
-7 -4 -4 -10z"/>
<path d="M7380 3840 c0 -5 5 -10 10 -10 6 0 10 5 10 10 0 6 -4 10 -10 10 -5 0
-10 -4 -10 -10z"/>
<path d="M6851 2454 c-141 -38 -261 -149 -307 -284 -27 -80 -25 -226 5 -298
85 -209 327 -327 566 -279 120 25 223 85 267 156 19 29 22 53 25 177 l4 143
-190 3 -191 3 0 -67 0 -68 95 0 95 0 0 -60 0 -60 -52 -34 c-125 -82 -270 -70
-373 30 -66 63 -89 121 -89 216 0 69 5 86 35 145 26 52 45 76 82 100 98 65
238 67 340 3 l51 -32 47 23 c27 12 60 30 74 39 l26 17 -61 46 c-116 87 -302
121 -449 81z"/>
<path d="M2915 2398 c-15 -40 -48 -125 -72 -188 -202 -526 -231 -605 -226
-613 3 -4 46 -7 96 -5 l92 3 29 83 30 82 191 0 191 0 18 -57 c36 -115 34 -113
136 -113 50 0 90 4 90 9 0 6 -16 50 -35 98 -99 252 -208 532 -251 646 l-48
127 -107 0 -107 0 -27 -72z m213 -305 l69 -193 -138 0 c-77 0 -139 3 -139 8 0
4 27 86 61 182 34 96 63 181 65 189 3 8 6 12 8 10 2 -2 35 -91 74 -196z"/>
<path d="M3006 2087 c-27 -78 -51 -148 -54 -154 -3 -10 22 -13 103 -13 98 0
107 2 102 18 -6 21 -99 286 -101 289 0 1 -23 -62 -50 -140z"/>
<path d="M3650 2035 c0 -381 2 -436 15 -441 9 -4 49 -3 90 1 l75 7 0 434 0
434 -90 0 -90 0 0 -435z"/>
<path d="M4044 2457 c-2 -7 -3 -204 -2 -437 l3 -425 88 0 88 0 0 300 -1 300
26 -30 c14 -16 61 -83 105 -149 73 -107 177 -255 196 -281 5 -5 28 -40 52 -77
l43 -68 94 0 94 0 0 441 0 440 -82 -3 -83 -3 -5 -299 -5 -299 -102 149 c-138
203 -195 285 -256 376 l-52 78 -98 0 c-71 0 -99 -4 -103 -13z"/>
<path d="M4990 2385 l0 -86 118 2 117 1 3 -356 2 -356 90 0 90 0 0 355 0 354
117 3 117 3 1 80 0 80 -327 3 -328 2 0 -85z"/>
<path d="M5810 2030 l0 -440 285 0 285 0 0 80 0 80 -195 0 -195 0 0 106 0 106
179 -4 180 -4 3 73 3 73 -183 2 -184 3 0 100 0 100 195 3 194 2 -3 73 c-2 39
-4 75 -4 80 0 4 -126 7 -280 7 l-280 0 0 -440z"/>
<path d="M7580 2031 l0 -441 290 0 290 0 0 80 0 80 -200 0 -200 0 0 104 0 103
178 -1 177 -1 3 72 3 73 -178 2 -178 3 -3 103 -3 102 191 0 190 0 0 78 0 77
-280 3 -280 3 0 -440z"/>
<path d="M8413 2463 l-73 -4 0 -435 0 -435 88 3 87 3 2 300 c1 165 3 305 3
310 0 6 13 -12 28 -38 30 -53 165 -252 305 -449 l91 -128 88 0 88 0 0 434 0
435 -42 6 c-24 4 -63 5 -88 3 l-45 -3 -5 -298 -5 -298 -195 282 c-207 299
-223 320 -242 317 -7 -1 -46 -4 -85 -5z"/>
<path d="M9328 2395 c-1 -42 -1 -79 1 -81 2 -2 98 -4 213 -4 114 0 208 -2 208
-5 0 -3 -7 -13 -15 -22 -8 -10 -52 -68 -97 -129 -46 -62 -137 -183 -202 -269
l-119 -157 -5 -69 -5 -69 352 0 351 0 0 75 0 75 -230 0 c-165 0 -230 3 -230
11 0 15 101 150 297 396 l153 192 0 61 0 60 -267 0 c-148 0 -298 3 -335 6
l-66 7 -4 -78z"/>
<path d="M4164 1236 c-33 -33 -34 -37 -34 -109 0 -66 3 -79 26 -106 32 -39 80
-49 124 -26 38 20 60 67 60 130 0 128 -97 190 -176 111z"/>
<path d="M6009 1255 c-15 -8 -30 -22 -34 -32 -28 -68 -20 -170 16 -209 50 -53
135 -33 163 37 53 132 -40 261 -145 204z"/>
<path d="M5052 1219 c-6 -15 -16 -45 -22 -68 -6 -23 -14 -49 -17 -57 -4 -11 6
-14 51 -14 31 0 56 3 56 6 0 3 -9 26 -19 52 -11 26 -24 61 -29 77 l-10 30 -10
-26z"/>
<path d="M7500 1195 l0 -75 48 0 c67 0 87 17 87 75 0 58 -20 75 -87 75 l-48 0
0 -75z"/>
<path d="M9610 1130 l0 -130 54 0 c69 0 83 6 101 41 18 34 20 128 3 164 -16
35 -57 55 -113 55 l-45 0 0 -130z"/>
</g>
</svg>
